<svg height="512pt" viewBox="-28 0 512 512" width="512pt" xmlns="http://www.w3.org/2000/svg"><path d="m379.304688 272.625h-79.347657s26.941407 32.359375-15.007812 98.105469c-.402344-.402344 109.769531-.402344 109.367187 0-41.949218-65.746094-15.011718-98.105469-15.011718-98.105469zm0 0" fill="#f1b70b"/><path d="m379.304688 272.625h-79.347657s13.65625 16.410156 6.382813 49.585938c28.25 1.859374 49.628906-4.160157 64.78125-11.550782-2.300782-25.4375 8.183594-38.035156 8.183594-38.035156zm0 0" fill="#e8a900"/><path d="m410.757812 416.753906h-142.25v-36.59375c0-11.78125 9.550782-21.332031 21.328126-21.332031h99.589843c11.78125 0 21.328125 9.550781 21.328125 21.332031v36.59375zm0 0" fill="#f6ca56"/><path d="m422.3125 504.5h-190.761719v-49.390625c0-27.769531 22.511719-50.28125 50.28125-50.28125h115.601563c27.765625 0 50.277344 22.511719 50.277344 50.28125v23.988281c0 14.03125-11.371094 25.402344-25.398438 25.402344zm0 0" fill="#fad989"/><path d="m196.582031 220.398438h-117.425781s39.1875 71.984374 0 167.394531h117.425781c-39.1875-95.410157 0-167.394531 0-167.394531zm0 0" fill="#f6ca56"/><path d="m79.15625 220.398438s12.816406 23.546874 16.460938 61.546874c31.324218-9.628906 66.679687-12.179687 86.136718-12.824218 4.855469-30.398438 14.828125-48.722656 14.828125-48.722656zm0 0" fill="#f1b70b"/><path d="m164.40625 54.570312c3.949219-5.179687 6.164062-11.566406 5.863281-18.441406-.667969-15.179687-13.910156-27.695312-30.328125-28.640625-18.847656-1.082031-34.5 12.714844-34.5 29.882813 0 6.464844 2.222656 12.449218 6 17.34375 3.550782 4.601562 2.839844 10.929687-1.421875 14.988281-22.9375 21.851563-51.707031 41.015625-51.707031 78.519531 0 40.566406 35.617188 73.453125 79.554688 73.453125s79.558593-32.886719 79.558593-73.453125c0-40.484375-28.804687-56.703125-51.746093-78.558594-4.304688-4.097656-4.832032-10.425781-1.273438-15.09375zm0 0" fill="#fad989"/><path d="m200.234375 243.824219h-124.730469c-12.9375 0-23.425781-10.488281-23.425781-23.425781s10.488281-23.425782 23.425781-23.425782h124.730469c12.9375 0 23.425781 10.488282 23.425781 23.425782s-10.488281 23.425781-23.425781 23.425781zm0 0" fill="#ffeab7"/><path d="m223.660156 416.753906h-171.582031v-34.5c0-12.9375 10.488281-23.425781 23.425781-23.425781h124.730469c12.9375 0 23.425781 10.488281 23.425781 23.425781zm0 0" fill="#fad989"/><path d="m240.339844 504.5h-204.941406c-15.410157 0-27.898438-12.492188-27.898438-27.898438v-16.550781c0-30.496093 24.722656-55.222656 55.222656-55.222656h150.292969c30.496094 0 55.222656 24.722656 55.222656 55.222656v16.550781c-.003906 15.40625-12.492187 27.898438-27.898437 27.898438zm0 0" fill="#ffeab7"/><path d="m399.964844 228.820312c0 33.320313-27.011719 60.332032-60.332032 60.332032-33.320312 0-60.332031-27.011719-60.332031-60.332032 0-33.320312 27.011719-60.332031 60.332031-60.332031 33.320313 0 60.332032 27.011719 60.332032 60.332031zm0 0" fill="#f6ca56"/><path d="m192.78125 155.03125v-12.453125c0-4.144531-3.355469-7.5-7.5-7.5s-7.5 3.355469-7.5 7.5v12.453125c0 4.140625 3.355469 7.5 7.5 7.5s7.5-3.359375 7.5-7.5zm0 0"/><path d="m90.453125 162.53125c4.144531 0 7.503906-3.359375 7.503906-7.5v-12.453125c0-4.144531-3.359375-7.5-7.503906-7.5-4.140625 0-7.5 3.355469-7.5 7.5v12.453125c0 4.140625 3.359375 7.5 7.5 7.5zm0 0"/><path d="m137.867188 165.304688c7.140624 0 13.742187-3.5625 17.664062-9.53125 2.273438-3.460938 1.3125-8.113282-2.152344-10.386719-1.269531-.835938-6.882812-2.992188-10.386718 2.152343-1.679688 2.464844-4.128907 2.761719-5.121094 2.761719-.996094 0-3.484375-.269531-5.125-2.761719-2.277344-3.464843-6.925782-4.425781-10.386719-2.152343-3.464844 2.273437-4.425781 6.925781-2.152344 10.386719 3.917969 5.96875 10.519531 9.53125 17.660157 9.53125zm0 0"/><path d="m418.257812 401.226562v-21.066406c0-15.089844-11.652343-27.5-26.433593-28.726562-20.011719-38.75-13.105469-61.875-8.8125-70.515625 14.929687-12.453125 24.453125-31.183594 24.453125-52.097657 0-37.40625-30.429688-67.832031-67.832032-67.832031-37.402343 0-67.832031 30.429688-67.832031 67.832031 0 20.917969 9.523438 39.648438 24.457031 52.101563 4.183594 8.433594 11.253907 31.628906-8.820312 70.511719-14.777344 1.222656-26.429688 13.632812-26.429688 28.722656v21.050781c-4.53125 1.75-8.835937 4.082031-12.820312 6.9375-5.175781-3.519531-10.90625-6.277343-17.027344-8.132812v-17.757813c0-17.054687-13.875-30.925781-30.925781-30.925781h-7.632813c-10-41.484375-5.75-76.273437.578126-100.003906h7.054687c17.050781 0 30.925781-13.871094 30.925781-30.925781 0-13.121094-8.214844-24.351563-19.765625-28.835938 8.785157-12.875 13.53125-27.855469 13.53125-43.339844 0-36.671875-21.179687-55.074218-41.664062-72.875-4.148438-3.601562-8.433594-7.328125-12.410157-11.113281-1.542968-1.46875-1.730468-3.476563-.480468-5.113281 5.203125-6.828125 7.761718-14.890625 7.390625-23.324219-.828125-18.917969-17.21875-35.796875-37.390625-35.796875-37.128906 0-42.429688 27.414062-42.429688 37.367188 0 7.9375 2.613282 15.519531 7.558594 21.929687 1.140625 1.476563.871094 3.519531-.65625 4.972656-3.410156 3.253907-13.753906 12.566407-13.753906 12.566407-3.070313 2.777343-3.308594 7.519531-.53125 10.59375 2.777344 3.074218 7.519531 3.308593 10.59375.53125 0 0 10.472656-9.429688 14.039062-12.828126 7.058594-6.722656 7.996094-17.472656 2.1875-25-2.902344-3.761718-4.4375-8.175781-4.4375-12.761718 0-5.785156 4.066406-22.394532 26.566406-22.394532 12.570313 0 22.769532 10.15625 23.265626 21.480469.210937 4.875-1.285157 9.570313-4.335938 13.566407-5.910156 7.757812-5.042969 18.300781 2.066406 25.074218 4.222656 4.023438 8.644532 7.863282 12.917969 11.578125 19.585937 17.019531 36.5 31.71875 36.5 61.550781 0 15.054688-5.609375 29.570313-15.847656 41.246094h-112.421875c-10.238282-11.675781-15.839844-26.207031-15.839844-41.246094 0-14.453124 4.773438-27.078124 15.023438-39.726562 2.605468-3.21875 2.113281-7.945312-1.105469-10.550781-3.222657-2.609375-7.945313-2.113281-10.550781 1.105469-12.53125 15.464843-18.367188 31.089843-18.367188 49.167968 0 15.472656 4.75 30.460938 13.535156 43.339844-11.554687 4.484375-19.769531 15.714844-19.769531 28.835938 0 17.054687 13.871094 30.929687 30.925781 30.929687h7.054688c6.289062 23.597656 10.597656 58.433594.582031 100h-7.636719c-17.054687 0-30.925781 13.875-30.925781 30.925781v17.761719c-25.765625 7.800781-44.578125 31.757813-44.578125 60.035156v16.550781c0 19.519532 15.878906 35.398438 35.398438 35.398438h386.914062c18.140625 0 32.898438-14.757812 32.898438-32.902344v-23.988281c0-24.519531-15.355469-45.507813-36.953126-53.882813zm-131.457031-172.40625c0-29.128906 23.699219-52.828124 52.832031-52.828124 29.128907 0 52.828126 23.699218 52.828126 52.828124 0 29.128907-23.699219 52.832032-52.828126 52.832032-29.132812 0-52.832031-23.703125-52.832031-52.832032zm77.332031 63.234376c-.609374 4.015624-.941406 8.511718-.816406 13.511718.351563 14.261719 4.304688 29.613282 11.757813 45.761719h-70.886719c7.367188-15.960937 11.316406-31.140625 11.746094-45.261719.160156-5.203125-.175782-9.863281-.804688-14.011718 7.605469 2.957031 24.503906 7.859374 49.003906 0zm-304.554687-71.65625c0-8.78125 7.144531-15.925782 15.925781-15.925782h124.726563c8.78125 0 15.925781 7.144532 15.925781 15.925782s-7.144531 15.925781-15.925781 15.925781h-124.726563c-8.78125 0-15.925781-7.144531-15.925781-15.925781zm38.464844 30.925781h79.644531c-6.054688 24.671875-9.664062 59.261719-.5 100.003906h-78.644531c9.175781-40.816406 5.523437-75.445313-.5-100.003906zm-38.464844 130.929687c0-8.78125 7.144531-15.925781 15.925781-15.925781h124.726563c8.78125 0 15.925781 7.144531 15.925781 15.925781v15.152344c-1.039062-.050781-155.539062-.050781-156.578125 0zm-24.179687 114.742188c-11.246094 0-20.394532-9.148438-20.394532-20.394532v-16.550781c0-26.3125 21.40625-47.722656 47.71875-47.722656h150.292969c26.3125 0 47.71875 21.410156 47.71875 47.722656v16.550781c0 11.246094-9.148437 20.394532-20.398437 20.394532zm404.8125-17.898438c0 9.871094-8.03125 17.898438-17.898438 17.898438h-153.070312c4.085937-5.769532 6.496093-12.804688 6.496093-20.394532v-16.550781c0-15.972656-6.011719-30.5625-15.875-41.644531 6.589844-3.949219 14.167969-6.074219 21.96875-6.074219h72.164063c4.140625 0 7.5-3.359375 7.5-7.503906 0-4.140625-3.359375-7.5-7.5-7.5 0 0-76.0625.109375-77.988282.304687v-17.472656c0-7.628906 6.203126-13.832031 13.828126-13.832031h99.589843c7.625 0 13.828125 6.207031 13.828125 13.832031v17.460938c-1.914062-.191406-17.753906-.292969-17.753906-.292969-4.144531 0-7.503906 3.359375-7.503906 7.5 0 4.144531 3.359375 7.5 7.503906 7.5h11.933594c23.585937 0 42.777344 19.191406 42.777344 42.78125zm0 0"/></svg>