<?xml version="1.0" standalone="no"?>
<!DOCTYPE svg PUBLIC "-//W3C//DTD SVG 20010904//EN"
 "http://www.w3.org/TR/2001/REC-SVG-20010904/DTD/svg10.dtd">
<svg version="1.0" xmlns="http://www.w3.org/2000/svg"
 width="512pt" height="512pt" viewBox="0 0 1131.000000 1280.000000"
 preserveAspectRatio="xMidYMid meet">
<metadata>
Created by potrace 1.15, written by Peter Selinger 2001-2017
</metadata>
<g transform="translate(0.000000,1280.000000) scale(0.100000,-0.100000)"
fill="#804000" stroke="none" width="100" height="100">
<path d="M3345 12782 c-84 -40 -148 -125 -231 -309 l-42 -93 59 -192 c32 -106
59 -200 59 -208 0 -8 -15 -30 -33 -50 -40 -41 -57 -95 -57 -175 0 -70 22 -120
67 -148 28 -18 33 -27 28 -47 -3 -14 -8 -55 -12 -91 -7 -78 10 -120 62 -150
30 -18 33 -23 28 -59 -15 -110 32 -193 128 -223 28 -10 57 -17 65 -17 7 0 15
-4 19 -9 3 -6 -504 -946 -1126 -2090 l-1131 -2080 -48 6 c-79 9 -146 -13 -199
-66 -25 -25 -51 -54 -56 -65 -10 -18 -13 -18 -80 4 -179 56 -323 9 -381 -123
-10 -23 -19 -43 -20 -45 0 -1 -27 4 -60 13 -80 21 -189 19 -239 -4 -22 -10
-55 -35 -74 -56 -32 -37 -72 -115 -70 -138 0 -7 155 -147 343 -312 l343 -300
-33 -36 c-59 -61 -70 -149 -30 -236 27 -57 57 -81 121 -97 l42 -11 -159 -400
c-87 -220 -157 -407 -156 -415 5 -23 97 -87 145 -100 86 -25 186 10 283 97 47
42 48 42 65 23 10 -11 40 -31 68 -45 108 -53 219 -26 338 84 l64 59 45 -27
c59 -34 164 -37 225 -5 l40 21 565 -465 c311 -255 1348 -1108 2305 -1895 957
-787 1743 -1435 1746 -1440 3 -5 9 -45 12 -90 13 -165 47 -367 68 -410 101
-199 271 -346 420 -363 110 -13 223 45 271 140 29 56 37 185 14 252 -20 62
-34 196 -37 345 l-2 117 31 38 c46 55 62 95 62 153 0 55 -17 107 -50 148 -30
39 -25 60 19 82 46 24 91 75 91 103 0 11 -7 36 -17 55 l-16 35 47 40 c106 91
123 192 80 464 l-16 101 57 139 c80 193 264 556 386 759 194 325 395 620 723
1060 202 270 245 339 435 693 555 1030 706 1775 525 2589 -14 62 -36 149 -49
194 -14 45 -24 83 -22 84 1 1 127 34 280 73 l278 71 18 -42 c10 -23 64 -151
121 -284 57 -134 106 -243 109 -242 3 0 254 279 556 620 416 468 551 626 553
647 l3 29 -73 6 c-76 7 -270 25 -1143 107 -285 27 -520 48 -521 47 -1 -1 49
-120 111 -265 67 -158 108 -265 101 -267 -6 -2 -92 -24 -191 -49 -99 -25 -217
-55 -263 -67 -45 -12 -84 -20 -85 -18 -1 2 -28 58 -61 124 -156 320 -405 696
-685 1035 -325 394 -469 522 -816 729 -412 245 -757 390 -2015 844 -728 263
-884 326 -985 396 -212 146 -411 314 -408 346 17 162 -5 236 -86 287 -51 31
-59 42 -41 53 17 11 11 64 -10 85 -11 11 -47 28 -80 37 -53 16 -60 21 -55 38
4 11 9 41 12 66 7 61 -13 98 -81 148 -52 38 -54 42 -66 108 -16 85 -62 227
-92 286 -24 48 -168 178 -245 224 -57 33 -135 40 -188 15z m661 -2334 c327
-242 716 -438 1520 -766 1135 -464 1925 -984 2403 -1582 127 -159 261 -365
261 -401 0 -10 -75 -33 -267 -83 -293 -75 -675 -173 -1463 -376 -283 -73 -668
-172 -855 -220 -187 -48 -572 -147 -855 -220 -283 -73 -668 -172 -855 -220
-918 -236 -1389 -357 -1578 -406 -115 -30 -210 -54 -212 -54 -14 0 -630 587
-629 599 0 9 416 772 924 1696 508 924 1004 1827 1103 2007 l179 327 112 -113
c61 -62 157 -147 212 -188z m4284 -3147 c0 -5 9 -62 20 -126 41 -238 52 -375
53 -615 0 -397 -50 -705 -179 -1103 -127 -391 -268 -685 -600 -1248 -374 -635
-659 -1179 -849 -1619 -57 -133 -59 -136 -114 -171 -31 -20 -84 -49 -117 -64
-122 -54 -158 -117 -157 -277 1 -102 0 -108 -23 -123 -61 -40 -83 -140 -60
-273 l16 -93 -34 -34 c-19 -19 -40 -50 -47 -70 -7 -19 -16 -35 -19 -35 -3 0
-210 163 -460 361 -250 199 -1207 960 -2127 1691 -920 731 -1675 1333 -1678
1338 -6 9 69 221 264 750 l61 165 63 17 c34 8 294 75 577 148 283 73 668 172
855 220 187 48 502 129 700 180 198 51 513 132 700 180 187 48 502 129 700
180 198 51 513 132 700 180 187 48 500 129 695 179 195 50 508 131 695 180
369 96 365 95 365 82z"/>
</g>
</svg>
