<svg id="Capa_1" enable-background="new 0 0 512 512" height="512" viewBox="0 0 512 512" width="512" xmlns="http://www.w3.org/2000/svg"><g><path d="m326 512h-140c-16.569 0-30-13.431-30-30 0-16.569 13.431-30 30-30h140c16.569 0 30 13.431 30 30 0 16.569-13.431 30-30 30z" fill="#524798"/><g><path d="m113.5 70h-97.5c-8.284 0-15-6.716-15-15v-40c0-8.284 6.716-15 15-15h97.5c8.284 0 15 6.716 15 15v40c0 8.284-6.716 15-15 15z" fill="#f9f9f9"/><path d="m241 70h-97.5c-8.284 0-15-6.716-15-15v-40c0-8.284 6.716-15 15-15h97.5c8.284 0 15 6.716 15 15v40c0 8.284-6.716 15-15 15z" fill="#00ec89"/></g><g><path d="m368.5 70h-97.5c-8.284 0-15-6.716-15-15v-40c0-8.284 6.716-15 15-15h97.5c8.284 0 15 6.716 15 15v40c0 8.284-6.716 15-15 15z" fill="#2ebeef"/><path d="m496 70h-97.5c-8.284 0-15-6.716-15-15v-40c0-8.284 6.716-15 15-15h97.5c8.284 0 15 6.716 15 15v40c0 8.284-6.716 15-15 15z" fill="#ffb454"/></g><g><path d="m113.5 140h-97.5c-8.284 0-15-6.716-15-15v-40c0-8.284 6.716-15 15-15h97.5c8.284 0 15 6.716 15 15v40c0 8.284-6.716 15-15 15z" fill="#45f6ff"/><path d="m241 140h-97.5c-8.284 0-15-6.716-15-15v-40c0-8.284 6.716-15 15-15h97.5c8.284 0 15 6.716 15 15v40c0 8.284-6.716 15-15 15z" fill="#ff6378"/></g><g><path d="m113.5 210h-97.5c-8.284 0-15-6.716-15-15v-40c0-8.284 6.716-15 15-15h97.5c8.284 0 15 6.716 15 15v40c0 8.284-6.716 15-15 15z" fill="#ffe196"/></g><g><path d="m368.5 140h-97.5c-8.284 0-15-6.716-15-15v-40c0-8.284 6.716-15 15-15h97.5c8.284 0 15 6.716 15 15v40c0 8.284-6.716 15-15 15z" fill="#e4e4ff"/><path d="m496 140h-97.5c-8.284 0-15-6.716-15-15v-40c0-8.284 6.716-15 15-15h97.5c8.284 0 15 6.716 15 15v40c0 8.284-6.716 15-15 15z" fill="#2ebeef"/></g><g><path d="m368.5 210h-97.5c-8.284 0-15-6.716-15-15v-40c0-8.284 6.716-15 15-15h97.5c8.284 0 15 6.716 15 15v40c0 8.284-6.716 15-15 15z" fill="#00a763"/><path d="m496 210h-97.5c-8.284 0-15-6.716-15-15v-40c0-8.284 6.716-15 15-15h97.5c8.284 0 15 6.716 15 15v40c0 8.284-6.716 15-15 15z" fill="#d0004f"/></g><path d="m366 360c-24.814 0-45-20.187-45-45s20.186-45 45-45 45 20.187 45 45-20.186 45-45 45z" fill="#45f6ff"/><path d="m397.805 283.195-63.61 63.61c8.148 8.148 19.398 13.195 31.805 13.195 24.814 0 45-20.187 45-45 0-12.407-5.047-23.657-13.195-31.805z" fill="#2ebeef"/><path d="m326 452h-70v60h70c16.569 0 30-13.431 30-30 0-16.569-13.431-30-30-30z" fill="#38336b"/></g></svg>