<?xml version="1.0" encoding="iso-8859-1"?>
<!-- Generator: Adobe Illustrator 19.0.0, SVG Export Plug-In . SVG Version: 6.00 Build 0)  -->
<svg width="512pt" height="512pt" version="1.1" id="Capa_1" xmlns="http://www.w3.org/2000/svg" xmlns:xlink="http://www.w3.org/1999/xlink" x="0px" y="0px"
	 viewBox="0 0 511.998 511.998" style="enable-background:new 0 0 511.998 511.998;" xml:space="preserve">
<path style="fill:#FCC400;" d="M194.775,393.024c-11.784,19.149-35.126,47.93-74.104,57.108l8.952-29.461
	c0,0-34.56,23.002-67.759,29.461c6.459-33.313,29.461-67.759,29.461-67.759l-29.461,8.952c9.178-38.978,37.959-62.32,57.108-74.104
	l81.594-17.133L194.775,393.024z"/>
<path style="fill:#E30E08;" d="M323.686,471.378c-42.574,42.574-110.738,43.922-154.925,4.063
	c17.442-1.849,36.247-15.723,38.877-40.138c1.097-10.141-0.609-22.107-6.363-35.788l-88.796-88.796
	c-13.681-5.754-25.647-7.46-35.788-6.363c-24.415,2.63-38.289,21.434-40.138,38.876c-39.858-44.186-38.511-112.351,4.063-154.925
	c25.175-25.175,59.321-35.931,92.157-32.262c15.056,1.684,29.833,6.385,43.348,14.139l165.688,165.688
	c7.754,13.515,12.462,28.298,14.139,43.348C359.616,412.056,348.86,446.203,323.686,471.378z"/>
<path style="fill:#C40606;" d="M355.948,379.221c-44.101,29.453-94.536,48.027-148.311,56.082
	c1.097-10.141-0.609-22.107-6.363-35.788l-88.796-88.796c-13.681-5.754-25.647-7.46-35.788-6.363
	c8.055-53.774,26.629-104.211,56.082-148.311c15.056,1.684,29.833,6.385,43.348,14.139l165.688,165.688
	C349.563,349.389,354.27,364.172,355.948,379.221z"/>
<path style="fill:#E3E8EC;" d="M201.27,399.519c69.115-15.874,134.754-50.721,188.596-104.563
	c79.078-79.078,117.197-183.598,114.383-287.212C400.636,4.93,296.117,43.048,217.039,122.126
	c-53.843,53.843-88.69,119.481-104.563,188.596L201.27,399.519z"/>
<path style="fill:#D5D8DB;" d="M261.95,167.039c-53.839,53.839-96.693,111.484-126.397,166.756l-23.074-23.075
	c15.865-69.11,50.722-134.752,104.561-188.591C296.117,43.05,400.636,4.934,504.251,7.75
	C428.29,32.587,341.028,87.961,261.95,167.039z"/>
<g>
	<path style="fill:#E30E08;" d="M481.14,151.524c-23.153-13.91-46.114-31.753-67.513-53.151
		c-10.333-10.333-19.829-21.018-28.457-31.91c-9.252-11.688-17.514-23.619-24.723-35.601c46.1-16.661,94.708-24.365,143.122-23.132
		c0.229,0.014,0.459,0.014,0.681,0.021l-0.007,0.007C505.562,56.386,497.873,105.209,481.14,151.524z"/>
	<path style="fill:#E30E08;" d="M489.066,341.327c-0.007-0.007,0-0.014-0.007-0.021"/>
</g>
<path style="fill:#C40606;" d="M504.25,7.75l-0.007,0.007c-37.701,12.318-78.189,32.169-119.073,58.705
	c-9.252-11.688-17.514-23.619-24.723-35.601c46.1-16.661,94.708-24.365,143.122-23.132C503.799,7.743,504.028,7.743,504.25,7.75z"/>
<circle style="fill:#E30E08;" cx="330.584" cy="181.415" r="73.019"/>
<circle style="fill:#A0D9F2;" cx="330.584" cy="181.415" r="49.172"/>
<path d="M511.847,7.539c-0.109-4.035-3.357-7.284-7.391-7.392c-64.367-1.743-128.525,12.156-186.041,40.261
	c-3.825,1.869-5.365,6.522-3.421,10.309l0.001,0.002c1.888,3.678,6.368,5.169,10.084,3.355c10.511-5.134,21.255-9.771,32.184-13.91
	c14.068,22.427,31.192,43.793,50.981,63.583c19.805,19.805,41.174,36.928,63.594,50.981c-0.388,1.022-0.756,2.048-1.152,3.067
	c-19.286,49.541-48.286,93.882-86.193,131.789c-50.012,50.012-112.464,85.072-180.841,101.57l-82.807-82.808
	c16.497-68.378,51.558-130.83,101.57-180.841c21.481-21.481,45.339-40.309,71.003-56.04c3.53-2.164,4.685-6.747,2.591-10.319l0,0
	c-2.152-3.671-6.904-4.869-10.531-2.645c-26.683,16.356-51.486,35.927-73.812,58.254c-13.691,13.691-26.294,28.285-37.761,43.646
	C128.02,137.457,71.899,146.278,35.24,182.938c-45.259,45.259-47.161,117.907-4.326,165.39c1.465,1.626,3.528,2.51,5.645,2.51
	c1.196,0,2.409-0.283,3.541-0.874c2.287-1.193,3.75-3.542,4.037-6.105c1.217-10.879,7.938-21.152,17.578-26.843
	c11.837-6.988,27.208-7.163,44.616-0.561c-20.576,14.515-43.51,37.889-51.824,72.959c-0.498,2.098-0.169,4.353,1.038,6.138
	c1.918,2.839,5.388,4.002,8.53,3.045l10.774-3.273c-7.319,13.558-16.549,33.411-20.414,53.203c-0.334,1.713-0.149,3.516,0.656,5.064
	c1.614,3.105,4.982,4.631,8.226,4.002c19.8-3.851,39.752-13.127,53.364-20.468l-3.209,10.56c-0.647,2.129-0.467,4.47,0.689,6.372
	c1.43,2.353,3.924,3.676,6.512,3.676c0.58,0,1.163-0.066,1.742-0.203c35.164-8.279,58.59-31.254,73.127-51.862
	c6.603,17.408,6.427,32.779-0.56,44.615c-5.698,9.651-15.988,16.377-26.882,17.582c-2.345,0.259-4.52,1.507-5.768,3.509
	c-2.013,3.231-1.349,7.286,1.338,9.709c22.904,20.661,51.659,30.913,80.375,30.913c30.817,0,61.588-11.811,85.015-35.239
	c2.887-2.886,5.633-5.925,8.212-9.084c2.795-3.423,2.14-8.491-1.466-11.047h-0.001c-3.278-2.324-7.772-1.672-10.314,1.44
	c-2.254,2.761-4.655,5.416-7.18,7.94c-36.086,36.086-92.106,40.616-133.139,12.682c9.407-4.322,17.483-11.503,22.901-20.678
	c6.269-10.618,11.497-28.124,3.318-53.125c45.805-11.577,88.972-31.191,127.683-57.821c12.442,26.37,13.347,56.759,2.444,83.87
	c-1.497,3.722,0.111,7.967,3.724,9.713l0.004,0.002c3.935,1.901,8.698,0.116,10.333-3.938c12.876-31.925,11.444-67.835-3.967-98.631
	c15.357-11.464,29.947-24.064,43.634-37.751c39.405-39.405,69.554-85.506,89.609-137.022
	C504.221,113.554,513.304,61.145,511.847,7.539z M53.982,303.924c-9.177,5.418-16.357,13.494-20.679,22.901
	C5.369,285.791,9.9,229.772,45.986,193.686c31.445-31.446,79.28-39.459,118.943-20.763c-26.631,38.711-46.245,81.878-57.822,127.684
	C82.107,292.428,64.6,297.656,53.982,303.924z M132.109,438.629l4.785-15.749c0.932-3.07-0.163-6.395-2.738-8.309
	c-2.576-1.914-6.075-2.005-8.746-0.228c-0.291,0.194-25.763,17.017-53.095,25.33c8.304-27.345,25.138-52.791,25.33-53.08
	c1.783-2.67,1.695-6.173-0.218-8.751c-1.913-2.579-5.243-3.674-8.313-2.743l-15.748,4.786c9.751-24.936,28.295-42.04,44.561-52.961
	l67.142,67.143C174.15,410.333,157.047,428.876,132.109,438.629z M477.091,140.057c-20.425-13.104-39.935-28.9-58.097-47.061
	c-18.143-18.142-33.934-37.64-47.048-58.063c40.057-13.332,82.328-20.049,124.835-19.719
	C497.154,57.939,490.54,99.821,477.091,140.057z"/>
<path d="M273.574,238.419c15.227,15.227,35.473,23.612,57.006,23.612s41.779-8.385,57.005-23.612
	c31.433-31.433,31.433-82.578,0-114.011c-15.226-15.227-35.472-23.612-57.005-23.612c-21.534,0-41.779,8.385-57.006,23.612
	C242.142,155.842,242.142,206.986,273.574,238.419z M284.323,135.158c12.355-12.355,28.782-19.16,46.257-19.16
	c17.473,0,33.901,6.804,46.256,19.16c25.506,25.505,25.506,67.007,0,92.512c-12.354,12.355-28.782,19.16-46.256,19.16
	c-17.474,0-33.901-6.804-46.257-19.16C258.818,202.164,258.818,160.664,284.323,135.158z"/>
<path d="M290.437,221.556c11.068,11.067,25.605,16.6,40.142,16.6s29.074-5.533,40.142-16.6c22.134-22.134,22.134-58.148,0-80.283
	c-22.136-22.135-58.149-22.135-80.284,0C268.305,163.407,268.305,199.422,290.437,221.556z M301.188,152.022
	c8.104-8.105,18.746-12.155,29.392-12.155c10.643,0,21.289,4.053,29.392,12.155c16.207,16.207,16.207,42.578,0,58.785
	c-16.205,16.207-42.579,16.207-58.784,0C284.981,194.6,284.981,168.229,301.188,152.022z"/>
<g>
</g>
<g>
</g>
<g>
</g>
<g>
</g>
<g>
</g>
<g>
</g>
<g>
</g>
<g>
</g>
<g>
</g>
<g>
</g>
<g>
</g>
<g>
</g>
<g>
</g>
<g>
</g>
<g>
</g>
</svg>
