<svg xmlns="http://www.w3.org/2000/svg"  viewBox="0 0 100 100" width="512pt" height="512pt"><path fill="#c7ede6" d="M87.215,56.78337a15.47316,15.47316,0,0,0-8.216-21.688l.001-.022a20.98763,20.98763,0,0,0-41.313-5.243,14.97544,14.97544,0,0,0-19.577,12.495,11.4995,11.4995,0,0,0,2.39,22.748c.177,0,.352-.012.526-.022-.004.175-.026.346-.026.522a20.49345,20.49345,0,0,0,36.434,12.886,11.97477,11.97477,0,0,0,19.232-2.904,10.99242,10.99242,0,0,0,10.549-18.772Z"/><path fill="#fff" d="M15.5,51.07337H5.5a.5.5,0,0,1,0-1h10a.5.5,0,0,1,0,1Zm3,0h-1a.5.5,0,0,1,0-1h1a.5.5,0,0,1,0,1Zm4.991,2H14.5a.5.5,0,0,1,0-1h8.991a.5.5,0,0,1,0,1Zm-10.991,0h-1a.5.5,0,0,1,0-1h1a.5.5,0,0,1,0,1Zm-3,0h-2a.5.5,0,0,1,0-1h2a.5.5,0,0,1,0,1Zm6,2h-2a.5.5,0,0,1,0-1h2a.5.5,0,0,1,0,1Zm3-9h-1a.5.5,0,0,0,0,1h1a.5.5,0,0,0,0-1Zm0,2h-5a.5.5,0,0,0,0,1h5a.5.5,0,0,0,0-1Zm5,2h-3a.5.5,0,0,0,0,1h3a.5.5,0,0,0,0-1Z"/><path fill="#fff" d="M72.5,24.07337h-10a.5.5,0,0,1,0-1h10a.5.5,0,0,1,0,1Zm4,0h-2a.5.5,0,0,1,0-1h2a.5.5,0,0,1,0,1Zm5,2h-10a.5.5,0,0,1,0-1h10a.5.5,0,0,1,0,1Zm-12,0h-1a.5.5,0,0,1,0-1h1a.5.5,0,0,1,0,1Zm-3.03,0H64.5a.5.5,0,0,1,0-1h1.97a.5.5,0,0,1,0,1Zm9.03-4h-5a.5.5,0,0,1,0-1h5a.5.5,0,0,1,0,1Zm-3,6h-2a.5.5,0,0,1,0-1h2a.5.5,0,0,1,0,1Z"/><path fill="#fdfcef" d="M78.5014,48h3.125v-.5h5.375a4.488,4.488,0,0,0,.445-8.955,4.451,4.451,0,0,0,.055-.545,4.48382,4.48382,0,0,0-8.027-2.764,4.9886,4.9886,0,1,0-9.786,1.546,3.47268,3.47268,0,0,0-6.142,1.773,4.451,4.451,0,0,0-.545-.055,4.5,4.5,0,1,0,0,9h15.5Z"/><path fill="#472b29" d="M74.5014,30a5.50586,5.50586,0,0,0-5.5,5.5v.047a3.93309,3.93309,0,0,0-2-.547,3.99791,3.99791,0,0,0-3.858,3.005c-.047-.003-.094-.005-.142-.005a5,5,0,1,0,0,10h15.5a.5.5,0,0,0,0-1h-15.5a4,4,0,1,1,0-8,2.58712,2.58712,0,0,1,.343.032l.141.019a.43034.43034,0,0,0,.062.004.50239.50239,0,0,0,.495-.437,2.9726,2.9726,0,0,1,5.26-1.518.50254.50254,0,0,0,.386.182.4864.4864,0,0,0,.228-.056.4998.4998,0,0,0,.254-.573,4.45008,4.45008,0,0,1-.169-1.153,4.48987,4.48987,0,0,1,8.974-.237.49986.49986,0,0,0,.893.282A3.98322,3.98322,0,0,1,87.0014,38a2.58712,2.58712,0,0,1-.032.343l-.019.141a.50006.50006,0,0,0,.446.558A3.98824,3.98824,0,0,1,87.0014,47h-5.5a.5.5,0,1,0,0,1h5.5a4.98758,4.98758,0,0,0,.997-9.877q.003-.0615.003-.123a5.00567,5.00567,0,0,0-5-5,4.93176,4.93176,0,0,0-3.183,1.164A5.4863,5.4863,0,0,0,74.5014,30Z"/><path fill="#472b29" d="M73.0014,37a3.00912,3.00912,0,0,0-2.913,2.341A2.34366,2.34366,0,0,0,68.8764,39a2.377,2.377,0,0,0-2.353,2.068,2.62982,2.62982,0,0,0-.585-.068,2.94005,2.94005,0,0,0-2.918,2.732.25212.25212,0,0,0,.232.268h.018a.24994.24994,0,0,0,.249-.232,2.3907,2.3907,0,0,1,3.157-2.141.22226.22226,0,0,0,.067.01.26554.26554,0,0,0,.156-.054.26055.26055,0,0,0,.102-.208,1.86486,1.86486,0,0,1,3.106-1.402.25214.25214,0,0,0,.165.063.23112.23112,0,0,0,.093-.019.247.247,0,0,0,.155-.212,2.50923,2.50923,0,0,1,2.481-2.305,2.46387,2.46387,0,0,1,.682.107.24179.24179,0,0,0,.07.01.25033.25033,0,0,0,.067-.491,2.94062,2.94062,0,0,0-.819-.126Zm13.883,1.5a3.00676,3.00676,0,0,0-2.874,2.182.24979.24979,0,0,0,.172.309.28443.28443,0,0,0,.069.009.24963.24963,0,0,0,.24-.182A2.50484,2.50484,0,0,1,86.8844,39a2.55793,2.55793,0,0,1,.342.029.20679.20679,0,0,0,.035.003.25016.25016,0,0,0,.032-.498,3.06292,3.06292,0,0,0-.409-.034Z"/><g><polygon fill="#bdc4d6" points="69.701 66.5 55.701 74 55.701 65.5 69.701 58 69.701 66.5"/><rect width="4" height="4" x="64.701" y="47" fill="#bdc4d6"/><polygon fill="#dee0e2" points="69.701 50.5 65.201 48.75 68.701 47 60.701 43.5 60.701 56 69.701 50.5"/><polygon fill="#bdc4d6" points="69.701 50.5 61.701 54.772 61.701 30 44.701 39 44.701 63.849 44.701 76.849 44.701 77 50.78 73.603 69.701 63.5 69.701 50.5"/><polygon fill="#dee0e2" points="47.701 23.5 30.701 31.5 30.701 69.5 44.701 77 44.701 39 61.701 30 47.701 23.5"/><polygon fill="#dee0e2" points="69.701 58 64.701 55.5 50.701 63 50.701 71.5 55.701 74 55.701 65.5 69.701 58"/><polygon fill="#ea6075" points="47.701 21 38.701 25.5 38.701 31.5 43.701 33.996 43.701 28 52.701 23.5 47.701 21"/><polygon fill="#c6243f" points="43.701 28 43.701 33.996 52.701 29.5 52.701 23.5 43.701 28"/><polygon fill="#f492ac" points="30.701 54.5 30.653 47.936 35.701 50 35.701 57 30.701 54.5"/><polygon fill="#c6243f" points="35.701 50 35.701 57 39.701 55 39.701 48 35.701 50"/><polygon fill="#605e60" points="48.701 46 48.701 42.5 52.201 41 52.201 44.5 48.701 46"/><polygon fill="#f96c55" points="34.701 40.5 28.701 43.5 28.701 50 33.701 52.5 33.701 46 39.701 43 34.701 40.5"/><polygon fill="#e55838" points="33.701 46 33.701 52.5 39.701 49 39.701 43 33.701 46"/><polygon fill="#f492ac" points="38.701 25.5 43.701 28 43.701 33.996 38.701 31.5 38.701 25.5"/><polygon fill="#fc7c59" points="28.701 43.5 33.701 46 33.701 52.5 28.701 50 28.701 43.5"/><path fill="#472b29" d="M44.70117,77.7002a.69852.69852,0,0,1-.33008-.083l-14-7.5A.70125.70125,0,0,1,30.001,69.5V51.43262L28.3877,50.626A.7012.7012,0,0,1,28.001,50V43.5a.7012.7012,0,0,1,.38672-.626l1.61328-.80664V31.5a.7012.7012,0,0,1,.38672-.626L38.001,27.06738V25.5a.7012.7012,0,0,1,.38672-.626l9-4.5a.7012.7012,0,0,1,.627,0l5,2.5a.7012.7012,0,0,1,.38672.626v1.56738L62.01465,29.374a.7012.7012,0,0,1,.38672.626V43.53857l6.57519,2.81788A.7003.7003,0,0,1,69.40137,47v2.64014l.5459.20459a.70016.70016,0,0,1,.4541.65527v16a.70126.70126,0,0,1-.37012.61719l-14,7.5a.69981.69981,0,0,1-.64355.00879l-2.667-1.3335L45.044,77.60986A.69735.69735,0,0,1,44.70117,77.7002Zm-13.2998-8.61915,13.292,7.12061,7.665-4.31152a.69613.69613,0,0,1,.65625-.01612l2.67578,1.33789L69.001,66.08105V50.98486l-.5459-.20459a.70016.70016,0,0,1-.4541-.65527V47.46143l-6.5752-2.81788A.70031.70031,0,0,1,61.001,44V30.43262L52.3877,26.126A.7012.7012,0,0,1,52.001,25.5V23.93262l-4.29981-2.14991-8.2998,4.14991V27.5a.7012.7012,0,0,1-.38672.626l-7.61328,3.80664V42.5a.7012.7012,0,0,1-.38672.626l-1.61328.80664v5.63476l1.61328.80664a.7012.7012,0,0,1,.38672.626ZM30.70117,42.5h0Z"/><path fill="#472b29" d="M46.70117,26.625a.12511.12511,0,0,1-.05566-.23682l2-1a.12491.12491,0,0,1,.11133.22364l-2,1A.12589.12589,0,0,1,46.70117,26.625Z"/><path fill="#472b29" d="M43.70117,28.125a.12283.12283,0,0,1-.05566-.01318l-1-.5a.12491.12491,0,0,1,.11133-.22364l.94433.47217,1.44434-.72217a.12491.12491,0,0,1,.11133.22364l-1.5.75A.12287.12287,0,0,1,43.70117,28.125Z"/><path fill="#472b29" d="M43.70117,34.69678a.70288.70288,0,0,1-.3125-.07373l-5-2.49659A.701.701,0,0,1,38.001,31.5v-4a.7002.7002,0,1,1,1.40039,0v3.56689l4.2998,2.14747,8.29981-4.147V25.5a.7002.7002,0,1,1,1.40039,0v4a.69977.69977,0,0,1-.3877.626l-9,4.49658A.69385.69385,0,0,1,43.70117,34.69678Z"/><path fill="#472b29" d="M35.70117,57.7002a.701.701,0,0,1-.31347-.07422l-5-2.5a.70008.70008,0,0,1,.627-1.252l4.68652,2.34327L39.001,54.56738V43.43262l-4.30469-2.15235c-1.42481.69141-3.29492,1.61182-3.57617,1.78077a.7002.7002,0,0,1-.91407-1.05616c.09766-.09765.209-.20849,4.19043-2.13476a.69509.69509,0,0,1,.61817.0039l5,2.5a.7012.7012,0,0,1,.38672.626V55a.7012.7012,0,0,1-.38672.626l-4,2A.70108.70108,0,0,1,35.70117,57.7002Z"/><path fill="#472b29" d="M33.70117,53.2002a.70408.70408,0,0,1-.31347-.07422l-3-1.5a.70008.70008,0,0,1,.627-1.252l2.66113,1.33057,5.67285-3.30908a.69978.69978,0,0,1,.70508,1.209l-6,3.5A.6981.6981,0,0,1,33.70117,53.2002Z"/><path fill="#472b29" d="M52.7002,73.2002a.69917.69917,0,0,1-.3125-.07422l-2-1A.7012.7012,0,0,1,50.001,71.5V63a.70125.70125,0,0,1,.37011-.61719l14-7.5a.70129.70129,0,0,1,.64356-.00879l5,2.5a.70008.70008,0,0,1-.627,1.252l-4.67579-2.33789L51.40137,63.419v7.64843l1.61328.80664a.70023.70023,0,0,1-.31445,1.32618Z"/><path fill="#472b29" d="M61.70117,55.47168a.70078.70078,0,0,1-.70019-.7002V44a.7002.7002,0,1,1,1.40039,0v9.604l6.96972-3.72168a.70034.70034,0,0,1,.66016,1.23536l-8,4.27148A.70656.70656,0,0,1,61.70117,55.47168Z"/><path fill="#472b29" d="M68.70117,50.625a.50053.50053,0,0,1-.18262-.03467l-3.5-1.375a.50028.50028,0,0,1-.041-.9126l3.5-1.75a.50006.50006,0,0,1,.44726.89454l-2.49609,1.248,2.45508.96436a.49985.49985,0,0,1-.18262.96533Z"/><path fill="#472b29" d="M43.70117,29.875a.12493.12493,0,0,1-.125-.125V28a.125.125,0,1,1,.25,0v1.75A.12492.12492,0,0,1,43.70117,29.875Z"/><path fill="#472b29" d="M43.70117,34.12158a.12493.12493,0,0,1-.125-.125V31.25a.125.125,0,1,1,.25,0v2.74658A.12492.12492,0,0,1,43.70117,34.12158Z"/><path fill="#472b29" d="M44.70117,39.25a.24685.24685,0,0,1-.11816-.02979l-4-2.14306a.24992.24992,0,1,1,.23633-.44043l3.88281,2.08008,16.88183-8.938a.25332.25332,0,0,1,.3379.104.25054.25054,0,0,1-.10352.33838l-17,9A.25655.25655,0,0,1,44.70117,39.25Z"/><path fill="#472b29" d="M38.70117,36.03564a.24836.24836,0,0,1-.11914-.03027l-5.125-2.78564a.25.25,0,1,1,.23828-.43946l5.125,2.78565a.2499.2499,0,0,1-.11914.46972Z"/><path fill="#472b29" d="M44.70117,53a.25017.25017,0,0,1-.25-.25v-7.5a.25.25,0,0,1,.5,0v7.5A.25017.25017,0,0,1,44.70117,53Z"/><path fill="#472b29" d="M44.70117,43a.25017.25017,0,0,1-.25-.25V39a.25.25,0,0,1,.5,0v3.75A.25017.25017,0,0,1,44.70117,43Z"/><path fill="#472b29" d="M44.70117,59a.25017.25017,0,0,1-.25-.25v-2.5a.25.25,0,0,1,.5,0v2.5A.25017.25017,0,0,1,44.70117,59Z"/><path fill="#472b29" d="M44.70117,77.125a.25017.25017,0,0,1-.25-.25V64.25a.25.25,0,0,1,.5,0V76.875A.25017.25017,0,0,1,44.70117,77.125Z"/><path fill="#472b29" d="M41.20117,26.875a.12588.12588,0,0,1-.05566-.01318l-2.5-1.25a.12455.12455,0,0,1-.05567-.16748.12589.12589,0,0,1,.167-.05616l2.5,1.25a.12511.12511,0,0,1-.05567.23682Z"/><path fill="#472b29" d="M33.70117,47.875a.12493.12493,0,0,1-.125-.125V46a.12392.12392,0,0,1,.06934-.11182l2-1a.12588.12588,0,0,1,.167.05616.12456.12456,0,0,1-.05566.16748l-1.93067.96533V47.75A.12492.12492,0,0,1,33.70117,47.875Z"/><path fill="#472b29" d="M33.70117,46.125a.12588.12588,0,0,1-.05566-.01318l-1-.5a.12455.12455,0,0,1-.05567-.16748.12589.12589,0,0,1,.167-.05616l1,.5a.12511.12511,0,0,1-.05567.23682Z"/><path fill="#472b29" d="M33.70117,52.625a.12493.12493,0,0,1-.125-.125V49.25a.125.125,0,0,1,.25,0V52.5A.12492.12492,0,0,1,33.70117,52.625Z"/><path fill="#472b29" d="M31.45117,45a.12588.12588,0,0,1-.05566-.01318l-1-.5a.12491.12491,0,0,1,.11133-.22364l1,.5A.12511.12511,0,0,1,31.45117,45Z"/><path fill="#472b29" d="M37.70117,44.125a.12511.12511,0,0,1-.05566-.23682l2-1a.12491.12491,0,0,1,.11133.22364l-2,1A.12589.12589,0,0,1,37.70117,44.125Z"/><path fill="#472b29" d="M35.70117,54.875a.12493.12493,0,0,1-.125-.125v-3.5a.125.125,0,0,1,.25,0v3.5A.12492.12492,0,0,1,35.70117,54.875Z"/><path fill="#472b29" d="M55.70117,67.875a.12493.12493,0,0,1-.125-.125V65.5a.12553.12553,0,0,1,.06641-.11084l2.375-1.25a.12538.12538,0,0,1,.11719.22168l-2.3086,1.21484V67.75A.12492.12492,0,0,1,55.70117,67.875Z"/><path fill="#472b29" d="M55.70117,74.125a.12493.12493,0,0,1-.125-.125V70.25a.125.125,0,0,1,.25,0V74A.12492.12492,0,0,1,55.70117,74.125Z"/><path fill="#472b29" d="M59.70117,63.5a.125.125,0,0,1-.05859-.23535l4-2.125a.12494.12494,0,0,1,.11719.2207l-4,2.125A.127.127,0,0,1,59.70117,63.5Z"/><path fill="#472b29" d="M65.95117,60.125a.125.125,0,0,1-.05859-.23535l3.75-2a.12494.12494,0,0,1,.11719.2207l-3.75,2A.127.127,0,0,1,65.95117,60.125Z"/><path fill="#472b29" d="M52.20117,42.875a.12493.12493,0,0,1-.125-.125V41.18945L50.5,41.86475a.12471.12471,0,1,1-.09766-.2295l1.75-.75A.12484.12484,0,0,1,52.32617,41v1.75A.12492.12492,0,0,1,52.20117,42.875Z"/><path fill="#472b29" d="M48.70117,45.125a.12493.12493,0,0,1-.125-.125V43.5a.125.125,0,0,1,.25,0V45A.12492.12492,0,0,1,48.70117,45.125Z"/><path fill="#472b29" d="M50.70117,45.25a.12492.12492,0,0,1-.04785-.24023l1.5-.625a.12352.12352,0,0,1,.16309.06738.125.125,0,0,1-.06739.16308l-1.5.625A.1198.1198,0,0,1,50.70117,45.25Z"/></g><g><path fill="#fdfcef" d="M32.50649,78.49939h3.5a3.49118,3.49118,0,0,0,.445-6.955,3.48176,3.48176,0,0,0-6.035-2.88,3.999,3.999,0,0,0-7.91.835,3.95054,3.95054,0,0,0,.056.558,2.48032,2.48032,0,0,0-4.011,1.497,3.49433,3.49433,0,1,0-.545,6.945h7.5v.5h7Z"/><path fill="#472b29" d="M34.25649,73.99939a.25009.25009,0,0,1-.25-.25,2.22052,2.22052,0,0,1,2.218-2.218,6.32067,6.32067,0,0,1,1.244.136.24961.24961,0,1,1-.13.482,5.0374,5.0374,0,0,0-1.113-.118,1.72055,1.72055,0,0,0-1.719,1.718A.25009.25009,0,0,1,34.25649,73.99939Zm-6.75,4a.5.5,0,1,0,.5.5A.5.5,0,0,0,27.50649,77.99939Z"/><path fill="#472b29" d="M36.00649,78.99939h-3.5a.5.5,0,0,1,0-1h3.5a2.99119,2.99119,0,0,0,.382-5.959.50013.50013,0,0,1-.43-.573,3.14448,3.14448,0,0,0,.048-.468,3.00366,3.00366,0,0,0-3-3,2.95761,2.95761,0,0,0-2.219,1,.49987.49987,0,0,1-.86-.231,3.499,3.499,0,0,0-6.921.731,2.88722,2.88722,0,0,0,.041.418.54833.54833,0,0,1-.242.54.49061.49061,0,0,1-.556-.01,1.9702,1.9702,0,0,0-1.243-.448,1.99359,1.99359,0,0,0-1.963,1.644.49782.49782,0,0,1-.569.405,2.99435,2.99435,0,1,0-.468,5.951h7.5a.5.5,0,0,1,0,1h-7.5a4,4,0,0,1,0-8c.059,0,.116.002.174.006a2.993,2.993,0,0,1,2.826-2.006,2.9066,2.9066,0,0,1,1.011.18,4.49848,4.49848,0,0,1,8.642-1.406,3.98648,3.98648,0,0,1,6.347,3.226c0,.048-.001.095-.004.142a3.991,3.991,0,0,1-.996,7.858Z"/><path fill="#472b29" d="M30.50649,77.99939h-1a.5.5,0,0,0,0,1h1a.5.5,0,0,0,0-1Z"/></g></svg>