<?xml version="1.0" encoding="iso-8859-1"?>
<!-- Generator: Adobe Illustrator 19.0.0, SVG Export Plug-In . SVG Version: 6.00 Build 0)  -->
<svg version="1.1" id="Capa_1" xmlns="http://www.w3.org/2000/svg" xmlns:xlink="http://www.w3.org/1999/xlink" x="0px" y="0px"
	 viewBox="0 0 512 512" style="enable-background:new 0 0 512 512;" xml:space="preserve">
<path style="fill:#00AA95;" d="M7.837,175.02v41.796c0,31.74,46.781,57.469,104.49,57.469s104.49-25.73,104.49-57.469V175.02H7.837z
	"/>
<g>
	<ellipse style="fill:#00DDC2;" cx="112.327" cy="175.02" rx="104.49" ry="57.469"/>
	<path style="fill:#00DDC2;" d="M44.408,175.02L44.408,175.02c14.427,0,26.122-11.696,26.122-26.122V70.531
		c0-23.083,18.713-41.796,41.796-41.796l0,0c23.083,0,41.796,18.713,41.796,41.796v78.367c0,14.427,11.696,26.122,26.122,26.122l0,0
		"/>
</g>
<path style="fill:#E2472D;" d="M295.184,384v41.796c0,31.74,46.782,57.469,104.49,57.469s104.49-25.73,104.49-57.469V384H295.184z"
	/>
<g>
	<ellipse style="fill:#FF6243;" cx="399.673" cy="384" rx="104.49" ry="57.469"/>
	<path style="fill:#FF6243;" d="M331.755,384L331.755,384c14.427,0,26.122-11.696,26.122-26.122V279.51
		c0-23.083,18.713-41.796,41.796-41.796l0,0c23.083,0,41.796,18.713,41.796,41.796v78.367c0,14.427,11.696,26.122,26.122,26.122l0,0
		"/>
</g>
<path style="fill:#EEBF00;" d="M52.601,342.727v31.347c0,20.198,46.781,36.571,104.49,36.571s104.49-16.374,104.49-36.571v-31.347
	H52.601z"/>
<ellipse style="fill:#FFDA44;" cx="157.09" cy="342.727" rx="104.49" ry="36.571"/>
<path d="M224.653,216.816V175.02c0-25.312-24.404-47.951-62.694-58.727V70.531c0-27.367-22.266-49.633-49.633-49.633
	S62.694,43.164,62.694,70.531v45.762C24.404,127.069,0,149.709,0,175.02v41.796c0,36.621,49.34,65.306,112.327,65.306
	S224.653,253.437,224.653,216.816z M62.694,132.642v16.255c0,10.082-8.203,18.286-18.286,18.286v15.673
	c18.725,0,33.959-15.235,33.959-33.959V70.531c0-18.725,15.235-33.959,33.959-33.959s33.959,15.235,33.959,33.959v78.367
	c0,18.725,15.235,33.959,33.959,33.959v-15.673c-10.082,0-18.286-8.203-18.286-18.286v-16.255
	c28.496,9.027,47.02,25.415,47.02,42.378c0,26.904-44.262,49.633-96.653,49.633s-96.653-22.729-96.653-49.633
	C15.673,158.058,34.197,141.67,62.694,132.642z M15.673,216.816v-8.052c19.411,19.047,55.054,31.562,96.653,31.562
	s77.242-12.515,96.653-31.562v8.052c0,26.904-44.262,49.633-96.653,49.633S15.673,243.72,15.673,216.816z"/>
<path d="M449.306,325.273V279.51c0-27.367-22.266-49.633-49.633-49.633c-27.367,0-49.633,22.266-49.633,49.633v45.762
	c-38.29,10.776-62.694,33.416-62.694,58.727v41.796c0,36.621,49.34,65.306,112.327,65.306S512,462.416,512,425.796V384
	C512,358.688,487.596,336.049,449.306,325.273z M350.041,341.623v16.254c0,10.082-8.204,18.286-18.286,18.286v15.673
	c18.725,0,33.959-15.235,33.959-33.959V279.51c0-18.725,15.235-33.959,33.959-33.959c18.725,0,33.959,15.235,33.959,33.959v78.367
	c0,18.725,15.235,33.959,33.959,33.959v-15.673c-10.082,0-18.286-8.203-18.286-18.286v-16.254
	c28.496,9.027,47.02,25.415,47.02,42.377c0,26.904-44.262,49.633-96.653,49.633S303.02,410.904,303.02,384
	C303.02,367.037,321.544,350.65,350.041,341.623z M399.673,475.429c-52.391,0-96.653-22.729-96.653-49.633v-8.052
	c19.411,19.047,55.054,31.562,96.653,31.562s77.242-12.515,96.653-31.562v8.052C496.327,452.7,452.065,475.429,399.673,475.429z"/>
<path d="M233.566,309.47c-20.547-7.191-47.706-11.151-76.475-11.151s-55.928,3.96-76.474,11.151
	c-29.632,10.372-35.853,23.81-35.853,33.257v31.347c0,9.447,6.22,22.885,35.853,33.257c20.547,7.191,47.706,11.151,76.474,11.151
	s55.928-3.96,76.475-11.151c29.632-10.372,35.853-23.81,35.853-33.257v-31.347C269.418,333.28,263.198,319.841,233.566,309.47z
	 M157.091,402.808c-59.001,0-96.653-17.018-96.653-28.735v-7.647c5.06,3.327,11.644,6.569,20.179,9.557
	c20.547,7.191,47.706,11.151,76.474,11.151s55.928-3.96,76.475-11.151c8.535-2.987,15.118-6.229,20.178-9.557v7.647
	C253.744,385.79,216.092,402.808,157.091,402.808z M157.091,371.461c-59.001,0-96.653-17.018-96.653-28.735
	c0-11.716,37.652-28.735,96.653-28.735s96.653,17.018,96.653,28.735C253.744,354.443,216.092,371.461,157.091,371.461z"/>
<g>
</g>
<g>
</g>
<g>
</g>
<g>
</g>
<g>
</g>
<g>
</g>
<g>
</g>
<g>
</g>
<g>
</g>
<g>
</g>
<g>
</g>
<g>
</g>
<g>
</g>
<g>
</g>
<g>
</g>
</svg>
