<?xml version="1.0" encoding="iso-8859-1"?>
<!-- Generator: Adobe Illustrator 19.0.0, SVG Export Plug-In . SVG Version: 6.00 Build 0)  -->
<svg version="1.1" id="Layer_1" xmlns="http://www.w3.org/2000/svg" xmlns:xlink="http://www.w3.org/1999/xlink" x="0px" y="0px"
	 viewBox="0 0 512.003 512.003" style="enable-background:new 0 0 512.003 512.003;" xml:space="preserve">
<g>
	<path style="fill:#F0C419;" d="M418.135,345.734v-76.8c0-37.7-30.566-68.267-68.267-68.267H217.141l-49.135-69.777
		C157.527,116,149.582,99.608,141.569,83.258c-4.412-8.994-13.542-15.906-23.501-18.313c-0.546,3.166-1.237,6.306-2.458,9.515
		c-2.833,8.567-7.219,15.846-13.252,20.258c-5.931-4.241-10.283-11.29-13.124-19.635c-0.384-0.717-0.828-1.417-1.143-2.15
		c-2.304,2.074-4.343,4.42-6.007,7.04c-14.268,22.417-28.288,44.996-45.628,65.143l-18.961,22.042
		c-14.857,16.7-11.136,43.742,10.394,55.228c15.693,8.371,35.2,4.335,47.778-8.235l7.578-7.586
		c10.462-10.462,28.288-6.101,32.742,8.013l41.421,131.157l-52.642,132.045c18.193,5.103,38.537,9.813,60.663,13.551l56.439-145.596
		h131.806l54.161,132.497c17.843-5.239,35.925-11.725,54.135-19.328L418.135,345.734z"/>
	<g>
		<path style="fill:#F18D46;" d="M93.836,140.934c0,4.71-3.823,8.533-8.533,8.533c-4.71,0-8.533-3.823-8.533-8.533
			c0-4.71,3.823-8.533,8.533-8.533C90.013,132.401,93.836,136.224,93.836,140.934"/>
		<path style="fill:#F18D46;" d="M260.948,507.602c-148.471,0-256.06-59.895-257.408-60.945c-2.637-2.048-4.105-5.751-3.337-9.003
			c0.768-3.251,3.396-5.777,6.673-6.426c2.833-0.546,5.581,0.341,7.518,2.176c11.546,6.605,238.43,127.198,485.129-1.365
			c4.181-2.185,9.335-0.563,11.511,3.618c2.176,4.181,0.563,9.335-3.627,11.511C420.47,492.481,335.547,507.602,260.948,507.602"/>
		<path style="fill:#F18D46;" d="M503.468,313.227c-4.625,2.176-15.258,3.046-17.067,3.388c-0.99-6.332,4.42-20.727,8.533-32.734
			c9.395-20.386,10.897-40.67,8.533-60.314c-3.277-27.145-34.978-47.991-61.013-48.495c-28.245-0.631-44.629,19.396-52.83,38.443
			c10.291,7.398,18.458,17.545,23.356,29.423c5.18-12.51,15.846-33.741,28.484-33.741h0.324c9.131,0.179,16.947,8.107,18.193,18.458
			c1.63,13.466-1.058,27.793-7.987,42.573l-0.623,1.536c-5.205,15.863-15.829,54.025,3.465,71.45
			c5.734,5.18,12.706,7.774,20.881,7.774c7.68,0,18.005-2.287,27.75-6.878V313.227z"/>
		<path style="fill:#F18D46;" d="M283.477,294.534h21.854l-5.129-25.6h-11.605L283.477,294.534z M315.733,311.601h-42.667
			c-2.56,0-4.975-1.143-6.596-3.123c-1.621-1.98-2.27-4.574-1.766-7.083l8.533-42.667c0.794-3.994,4.301-6.861,8.363-6.861h25.6
			c4.07,0,7.569,2.867,8.371,6.861l8.533,42.667c0.503,2.509-0.145,5.103-1.766,7.083
			C320.716,310.458,318.293,311.601,315.733,311.601L315.733,311.601z"/>
		<path style="fill:#F18D46;" d="M25.626,158.017l-8.132,9.139c-12.476,14.02-11.853,35.345,1.425,48.614
			c15.215,15.223,39.893,15.223,55.117,0l2.389-2.381C72.85,171.09,26.223,158.18,25.626,158.017"/>
		<path style="fill:#F18D46;" d="M141.566,83.257c8.021,16.35,15.957,32.742,26.445,47.633l49.135,69.777h64.427
			c0,0-51.2-4.625-51.2-59.733s-34.133-68.267-34.133-68.267c-34.995-19.396-59.733,0-59.733,0v3.055
			C138.503,77.992,140.218,80.509,141.566,83.257"/>
		<path style="fill:#F18D46;" d="M102.369,4.401c22.741,16.691,22.767,73.651-0.009,90.317
			C79.619,78.453,79.568,21.493,102.369,4.401"/>
		<path style="fill:#F18D46;" d="M88.484,72.724c-2.193-7.356-3.251-15.582-3.166-23.825c-11.631-10.308-26.086-16.87-38.75-14.925
			c-2.671,18.688,12.604,41.054,31.223,52.727c1.425-2.244,2.867-4.489,4.292-6.733c1.664-2.62,3.703-4.966,6.007-7.031
			L88.484,72.724z"/>
	</g>
	<path style="fill:#E64C3C;" d="M332.801,268.935h-85.333c-9.429,0-17.067-7.637-17.067-17.067v-51.2h119.467v51.2
		C349.868,261.297,342.231,268.935,332.801,268.935"/>
</g>
<g>
</g>
<g>
</g>
<g>
</g>
<g>
</g>
<g>
</g>
<g>
</g>
<g>
</g>
<g>
</g>
<g>
</g>
<g>
</g>
<g>
</g>
<g>
</g>
<g>
</g>
<g>
</g>
<g>
</g>
</svg>
