<?xml version="1.0" encoding="iso-8859-1"?>
<!-- Generator: Adobe Illustrator 19.0.0, SVG Export Plug-In . SVG Version: 6.00 Build 0)  -->
<svg version="1.1" id="Capa_1" xmlns="http://www.w3.org/2000/svg" xmlns:xlink="http://www.w3.org/1999/xlink" x="0px" y="0px"
	 viewBox="0 0 512 512" style="enable-background:new 0 0 512 512;" xml:space="preserve">
<circle style="fill:#FF3501;" cx="256" cy="256" r="256"/>
<path style="fill:#C70024;" d="M498.276,338.882l-82.551-82.551c-15.764-19.109-42.169-27.667-67.14-19.506
	c-3.79,1.239-10.812,4.269-20.075,8.557L217.175,134.046c-17.509-19.946-46.03-28.316-72.563-18.886
	c-34.754,12.35-52.915,50.536-40.565,85.29c0.771,2.173,1.645,4.28,2.611,6.319c2.416,5.098,5.419,9.769,8.897,13.961
	c2.192,2.642,4.577,5.085,7.118,7.334l80.017,80.017c-38.778,19.888-69.902,36.132-69.902,36.132
	c-7.57,4.345-26.492,15.683-20.177,35.002c1.901,5.816,4.748,9.876,8.117,12.686l119.611,119.611
	C245.52,511.822,250.739,512,256,512C368.376,512,463.833,439.589,498.276,338.882z"/>
<circle style="fill:#D8D7DA;" cx="166.979" cy="178.087" r="66.783"/>
<path style="fill:#C6C5CA;" d="M166.901,111.304l0.149,133.565c36.883-0.041,66.749-29.974,66.708-66.857
	C233.716,141.129,203.784,111.263,166.901,111.304z"/>
<path style="fill:#FFDA44;" d="M132.787,344.211c0,0,188.946-98.61,215.799-107.385c32.57-10.644,67.601,7.131,78.245,39.7
	c10.644,32.57-7.13,67.601-39.7,78.245c-26.565,8.682-237.055,42.34-237.055,42.34c-11.617,1.29-30.64,2.987-37.465-17.898
	C106.296,359.894,125.216,348.556,132.787,344.211z"/>
<path style="fill:#FFA733;" d="M387.13,354.769c-26.565,8.682-237.055,42.34-237.055,42.34c-11.617,1.29-30.64,2.987-37.465-17.898
	l226.465-74.008c3.781,10.88,14.117,18.692,26.285,18.692c15.368,0,27.826-12.458,27.826-27.826c0-2.837-0.427-5.573-1.217-8.152
	l34.861-11.392C437.473,309.094,419.699,344.126,387.13,354.769z"/>
<circle style="fill:#C70024;" cx="365.357" cy="296.07" r="27.826"/>
<path style="fill:#A5001E;" d="M393.185,296.07c0,15.368-12.458,27.826-27.826,27.826c-12.168,0-22.503-7.812-26.284-18.692
	l52.894-17.286C392.757,290.497,393.185,293.232,393.185,296.07z"/>
<g>
</g>
<g>
</g>
<g>
</g>
<g>
</g>
<g>
</g>
<g>
</g>
<g>
</g>
<g>
</g>
<g>
</g>
<g>
</g>
<g>
</g>
<g>
</g>
<g>
</g>
<g>
</g>
<g>
</g>
</svg>
