<?xml version="1.0" standalone="no"?>
<!DOCTYPE svg PUBLIC "-//W3C//DTD SVG 20010904//EN"
 "http://www.w3.org/TR/2001/REC-SVG-20010904/DTD/svg10.dtd">
<svg version="1.0" xmlns="http://www.w3.org/2000/svg"
 width="512pt" height="512pt" viewBox="0 0 512.000000 512.000000"
 preserveAspectRatio="xMidYMid meet">
<metadata>
Created by potrace 1.16, written by Peter Selinger 2001-2019
</metadata>
<g transform="translate(0.000000,512.000000) scale(0.100000,-0.100000)"
fill="#fff" stroke="none">
<path d="M1468 5109 c-31 -5 -74 -17 -96 -28 -147 -75 -235 -308 -143 -378 43
-33 125 -3 135 50 3 12 8 36 11 52 29 133 184 174 241 63 25 -49 13 -97 -49
-190 -106 -159 -201 -256 -329 -333 -55 -34 -63 -101 -16 -145 21 -19 34 -20
315 -20 l294 0 24 25 c33 32 33 84 1 122 -24 28 -25 28 -160 31 -75 2 -136 6
-136 9 0 3 21 28 46 56 65 73 174 241 191 296 9 29 13 71 10 112 -7 117 -70
209 -171 254 -65 29 -98 34 -168 24z"/>
<path d="M2325 5095 l-25 -24 0 -2511 0 -2511 25 -24 c24 -25 73 -33 110 -19
47 19 45 -109 45 2554 0 2663 2 2535 -45 2554 -37 14 -86 6 -110 -19z"/>
<path d="M3202 5098 c-27 -7 -55 -39 -167 -189 -110 -147 -135 -186 -135 -213
0 -68 70 -112 129 -82 15 8 46 42 70 75 23 34 44 61 47 61 2 0 4 -87 4 -194
l0 -194 -99 -4 c-89 -3 -102 -6 -125 -27 -35 -33 -36 -92 -1 -126 l24 -25 294
0 c281 0 294 1 315 20 29 28 37 64 21 101 -17 44 -61 59 -164 59 l-85 0 0 344
c0 313 -2 346 -17 365 -23 28 -70 40 -111 29z"/>
<path d="M174 4084 c-59 -21 -123 -80 -150 -138 l-24 -51 0 -950 0 -950 24
-50 c28 -60 87 -116 147 -139 38 -15 77 -17 269 -14 199 3 230 5 264 22 53 27
104 80 130 135 21 46 21 49 21 991 0 1049 4 989 -68 1068 -78 83 -91 87 -347
89 -179 2 -234 -1 -266 -13z"/>
<path d="M3205 2976 c-85 -21 -166 -67 -236 -136 -249 -245 -194 -644 112
-818 192 -109 448 -73 607 86 107 107 152 216 152 367 0 151 -45 260 -152 367
-123 123 -313 176 -483 134z"/>
<path d="M4481 2900 c-49 -11 -116 -47 -148 -82 -12 -13 -32 -46 -45 -73 l-23
-50 0 -950 0 -950 23 -45 c72 -137 148 -164 443 -158 178 3 186 4 242 31 63
32 120 96 138 156 7 24 9 348 7 991 l-3 955 -33 52 c-33 51 -81 91 -137 114
-37 15 -400 22 -464 9z"/>
</g>
</svg>
