<?xml version="1.0" encoding="iso-8859-1"?>
<!-- Generator: Adobe Illustrator 18.0.0, SVG Export Plug-In . SVG Version: 6.00 Build 0)  -->
<!DOCTYPE svg PUBLIC "-//W3C//DTD SVG 1.1//EN" "http://www.w3.org/Graphics/SVG/1.1/DTD/svg11.dtd">
<svg version="1.1" id="Capa_1" xmlns="http://www.w3.org/2000/svg" xmlns:xlink="http://www.w3.org/1999/xlink" x="0px" y="0px"
fill="#fff" viewBox="0 0 357.514 357.514" style="enable-background:new 0 0 357.514 357.514;" xml:space="preserve">
<g>
	<g>
		<path d="M353.352,108.129c0-12.128-9.865-21.994-21.994-21.994H217.682c-4.143,0-7.5,3.357-7.5,7.5v35.42
			c0,2.581,1.326,4.982,3.514,6.354c2.186,1.371,4.928,1.523,7.248,0.399c3.305-1.596,6.857-2.405,10.561-2.405
			c13.408,0,24.318,10.909,24.318,24.318c0,13.408-10.91,24.317-24.318,24.317c-3.703,0-7.256-0.81-10.561-2.405
			c-2.322-1.123-5.063-0.97-7.248,0.399c-2.188,1.372-3.514,3.772-3.514,6.354v27.959h-17.758c0.334-2.073,0.502-4.184,0.502-6.324
			c0-21.679-17.639-39.316-39.318-39.316c-21.682,0-39.318,17.638-39.318,39.316c0,2.14,0.168,4.25,0.502,6.324h-25.27
			c-4.143,0-7.5,3.357-7.5,7.5V335.52c0,12.128,9.865,21.994,21.994,21.994H331.36c12.127,0,21.992-9.866,21.992-21.994V108.129z
			 M97.022,335.52V229.344h27.92c2.58,0,4.98-1.327,6.352-3.513c1.373-2.186,1.523-4.924,0.402-7.248
			c-1.598-3.308-2.406-6.862-2.406-10.564c0-13.408,10.908-24.316,24.318-24.316c13.408,0,24.318,10.908,24.318,24.316
			c0,3.703-0.811,7.257-2.406,10.563c-1.123,2.324-0.971,5.063,0.4,7.248c1.373,2.187,3.771,3.514,6.354,3.514h27.908v17.768
			c-2.07-0.332-4.176-0.5-6.313-0.5c-0.002,0-0.004,0-0.004,0c-0.004,0-0.006,0-0.008,0c-21.68,0-39.316,17.638-39.316,39.316
			c0,21.681,17.637,39.318,39.316,39.318c0.002,0,0.004,0,0.008,0c0,0,0.002,0,0.004,0c2.137,0,4.242-0.168,6.313-0.5v17.768
			H104.016C100.159,342.514,97.022,339.377,97.022,335.52z M338.352,335.52c0,3.857-3.137,6.994-6.992,6.994H225.194v-27.92
			c0-2.581-1.328-4.98-3.514-6.353c-1.369-0.858-2.951-1.239-4.514-1.13c-0.94,0.064-1.873,0.307-2.746,0.729
			c-3.305,1.596-6.855,2.405-10.557,2.406c-13.406-0.004-24.313-10.911-24.313-24.318c0-13.406,10.906-24.313,24.313-24.316
			c3.701,0.001,7.252,0.811,10.557,2.406c1.162,0.563,2.43,0.805,3.68,0.734c1.25-0.068,2.484-0.448,3.58-1.136
			c2.186-1.372,3.514-3.771,3.514-6.353v-27.92h17.752c-0.33,2.061-0.496,4.156-0.496,6.283c0,0.006,0,0.012,0,0.018
			c0,0.007,0,0.014,0,0.021c0,21.681,17.637,39.318,39.316,39.318c21.68,0,39.318-17.638,39.318-39.318c0-0.014,0-0.025,0-0.039
			c0-2.127-0.166-4.223-0.496-6.283h17.764V335.52z M338.352,214.305h-27.92c-2.58,0-4.98,1.327-6.352,3.514
			c-0.693,1.104-1.072,2.348-1.137,3.609c-0.068,1.248,0.174,2.516,0.734,3.678c1.596,3.305,2.406,6.857,2.406,10.561
			c-0.022,13.391-10.922,24.279-24.318,24.279c-13.4,0-24.305-10.898-24.316-24.298c0.002-3.696,0.813-7.243,2.404-10.541
			c0.563-1.163,0.805-2.429,0.736-3.679c-0.064-1.261-0.443-2.506-1.135-3.609c-1.373-2.187-3.773-3.514-6.354-3.514h-27.92v-17.77
			c2.072,0.334,4.182,0.502,6.322,0.502c21.68,0,39.318-17.638,39.318-39.317c0-21.681-17.639-39.318-39.318-39.318
			c-2.141,0-4.25,0.168-6.322,0.502v-17.77h106.176c3.857,0,6.994,3.138,6.994,6.994V214.305z"/>
		<g>
			<path d="M64.626,187.268c-0.785,0-1.574-0.123-2.334-0.372c-1.891-0.619-3.457-1.963-4.357-3.737L6.548,81.757
				c-2.654-5.24-3.111-11.201-1.283-16.785c1.828-5.584,5.721-10.121,10.961-12.776l101.4-51.387c3.693-1.867,8.207-0.394,10.08,3.3
				l11.422,22.54c1.699-1.235,3.504-2.339,5.412-3.307c5.57-2.821,11.539-4.252,17.746-4.252c14.912,0,28.361,8.259,35.098,21.552
				c9.801,19.338,2.041,43.044-17.297,52.844c-1.908,0.968-3.867,1.771-5.867,2.41l11.424,22.541
				c1.873,3.695,0.395,8.208-3.299,10.08l-31.594,16.012c-2.303,1.168-5.043,1.067-7.254-0.261c-2.213-1.33-3.586-3.703-3.637-6.283
				c-0.07-3.67-0.955-7.207-2.629-10.513c-4.166-8.222-12.488-13.33-21.715-13.33c-3.83,0-7.52,0.886-10.969,2.634
				c-5.793,2.936-10.098,7.952-12.117,14.126c-2.021,6.173-1.518,12.763,1.418,18.557c1.676,3.305,4.004,6.108,6.922,8.334
				c2.051,1.565,3.154,4.076,2.918,6.646c-0.234,2.57-1.775,4.84-4.078,6.006l-31.594,16.013
				C66.956,186.996,65.792,187.268,64.626,187.268z M117.716,17.58L23.005,65.577c-1.666,0.844-2.904,2.286-3.484,4.062
				c-0.582,1.775-0.438,3.672,0.408,5.338l47.996,94.712l15.852-8.034c-1.234-1.698-2.338-3.505-3.307-5.414
				c-4.748-9.368-5.563-20.023-2.295-30.005c3.268-9.98,10.225-18.092,19.594-22.84c5.49-2.782,11.629-4.253,17.748-4.253
				c14.91,0,28.359,8.258,35.096,21.551c0.967,1.91,1.771,3.868,2.41,5.868l15.851-8.033l-12.623-24.905
				c-1.166-2.303-1.066-5.044,0.264-7.256c1.33-2.212,3.705-3.585,6.285-3.634c3.668-0.069,7.203-0.953,10.508-2.627
				c11.959-6.061,16.758-20.723,10.697-32.683c-4.168-8.224-12.49-13.333-21.719-13.333c-3.828,0-7.518,0.886-10.965,2.633
				c-3.301,1.672-6.104,4.001-8.332,6.921c-1.566,2.052-4.076,3.148-6.648,2.918c-2.568-0.235-4.838-1.776-6.004-4.078
				L117.716,17.58z"/>
		</g>
	</g>
</g>
<g>
</g>
<g>
</g>
<g>
</g>
<g>
</g>
<g>
</g>
<g>
</g>
<g>
</g>
<g>
</g>
<g>
</g>
<g>
</g>
<g>
</g>
<g>
</g>
<g>
</g>
<g>
</g>
<g>
</g>
</svg>
