<?xml version="1.0" encoding="iso-8859-1"?>
<!-- Generator: Adobe Illustrator 19.0.0, SVG Export Plug-In . SVG Version: 6.00 Build 0)  -->
<svg width="512pt" height="512pt" version="1.1" id="Capa_1" xmlns="http://www.w3.org/2000/svg" xmlns:xlink="http://www.w3.org/1999/xlink" x="0px" y="0px"
	 viewBox="0 0 512 512" style="enable-background:new 0 0 512 512;" xml:space="preserve">
<g>
	<g transform="translate(1 1)">
		<path style="fill:#CFD8DC;" d="M297.667,75.8h179.2c14.138,0,25.6,11.462,25.6,25.6v375.467c0,14.138-11.462,25.6-25.6,25.6
			H237.933c-14.139,0-25.6-11.462-25.6-25.6V434.2L297.667,75.8z"/>
		<path style="fill:#F4F4F4;" d="M290.14,75.8h163.388c13.509,0.636,23.951,12.09,23.339,25.6v375.467
			c0.613,13.51-9.83,24.964-23.339,25.6H235.672c-13.509-0.636-23.951-12.09-23.339-25.6V434.2L290.14,75.8z"/>
		<path style="fill:#CFD8DC;" d="M33.133,7.533h238.933c14.138,0,25.6,11.462,25.6,25.6V408.6c0,14.138-11.462,25.6-25.6,25.6
			H33.133c-14.138,0-25.6-11.462-25.6-25.6V33.133C7.533,18.995,18.995,7.533,33.133,7.533z"/>
		<path style="fill:#F4F4F4;" d="M33.133,7.533h213.333c14.138,0,25.6,11.462,25.6,25.6V408.6c0,14.138-11.462,25.6-25.6,25.6
			H33.133c-14.138,0-25.6-11.462-25.6-25.6V33.133C7.533,18.995,18.995,7.533,33.133,7.533z"/>
		<g>
			<path style="fill:#C52828;" d="M462.957,464.237c-7.335,5.829-17.835,5.393-24.661-1.024c-1.628-1.479-3.01-3.207-4.096-5.12
				c-2.682,4.922-7.34,8.462-12.8,9.728c-5.587,1.358-11.488,0.033-15.957-3.584c-0.358-0.297-0.674-0.642-0.939-1.024
				c-6.229-6.4-5.888-18.176,0.939-29.867c4.142-6.52,9.572-12.124,15.957-16.469c4.108-2.998,8.381-5.761,12.8-8.277
				c11.446,5.803,21.313,14.294,28.757,24.747C470.125,445.72,470.125,458.093,462.957,464.237z"/>
			<path style="fill:#C52828;" d="M414.915,324.973c-10.069,18.603-35.925,37.12-57.515,49.493c-4.181-2.389-8.448-4.949-12.8-7.765
				c-18.176-11.776-36.608-26.709-44.715-41.728c-0.768-1.365-1.536-2.731-2.219-4.011V265.24c0.697-0.754,1.438-1.466,2.219-2.133
				c3.118-2.596,6.672-4.619,10.496-5.973c11.467-4.002,24.151-2.357,34.219,4.437c5.302,3.564,9.688,8.33,12.8,13.909
				c4.694-8.498,12.301-15.014,21.419-18.347c12.256-4.38,25.905-2.122,36.096,5.973
				C429.251,275.48,429.251,300.227,414.915,324.973z"/>
		</g>
		<g>
			<path style="fill:#F44335;" d="M438.296,463.213c-0.265,0.382-0.581,0.727-0.939,1.024c-4.469,3.617-10.37,4.942-15.957,3.584
				c-5.46-1.266-10.118-4.806-12.8-9.728c-1.086,1.913-2.468,3.641-4.096,5.12c-6.229-6.4-5.888-18.176,0.939-29.867
				c4.142-6.52,9.572-12.124,15.957-16.469c6.386,4.345,11.816,9.95,15.957,16.469C444.184,445.037,444.525,456.813,438.296,463.213
				z"/>
			<path style="fill:#F44335;" d="M389.315,324.973c-8.107,15.019-26.539,29.952-44.715,41.728
				c-18.176-11.776-36.608-26.709-44.715-41.728c-0.768-1.365-1.536-2.731-2.219-4.011V265.24c0.697-0.754,1.438-1.466,2.219-2.133
				c3.118-2.596,6.672-4.619,10.496-5.973c9.118,3.333,16.725,9.849,21.419,18.347c3.112-5.579,7.498-10.345,12.8-13.909
				c5.302,3.564,9.688,8.33,12.8,13.909c4.694-8.498,12.301-15.014,21.419-18.347c3.824,1.355,7.378,3.377,10.496,5.973
				C403.651,275.48,403.651,300.227,389.315,324.973z"/>
		</g>
		<g>
			<path style="fill:#283593;" d="M104.557,97.304c-7.335,5.829-17.835,5.393-24.661-1.024c-1.628-1.479-3.01-3.207-4.096-5.12
				c-2.682,4.922-7.34,8.462-12.8,9.728c-5.587,1.358-11.488,0.033-15.957-3.584c-0.358-0.297-0.674-0.642-0.939-1.024
				c-6.229-6.4-5.888-18.176,0.939-29.867c4.142-6.52,9.572-12.124,15.957-16.469c4.108-2.998,8.381-5.761,12.8-8.277
				c11.446,5.803,21.313,14.294,28.757,24.747C111.725,78.787,111.725,91.16,104.557,97.304z"/>
			<path style="fill:#283593;" d="M258.157,375.32c-7.444,10.453-17.312,18.944-28.757,24.747c-4.419-2.516-8.692-5.28-12.8-8.277
				c-6.386-4.345-11.816-9.95-15.957-16.469c-6.827-11.691-7.168-23.467-0.939-29.867c0.265-0.382,0.581-0.727,0.939-1.024
				c4.469-3.617,10.37-4.942,15.957-3.584c5.46,1.266,10.118,4.806,12.8,9.728c1.086-1.913,2.468-3.641,4.096-5.12
				c6.826-6.417,17.327-6.853,24.661-1.024C265.325,350.573,265.325,362.947,258.157,375.32z"/>
			<path style="fill:#283593;" d="M210.115,255.427c-10.152,8.11-23.784,10.371-36.011,5.973h-0.085
				c-1.451-0.597-2.901-1.195-4.352-1.877V280.6c-0.096,4.555,1.671,8.952,4.893,12.174c3.222,3.222,7.619,4.989,12.174,4.893
				h-68.267c4.555,0.096,8.952-1.671,12.174-4.893c3.222-3.222,4.989-7.619,4.893-12.174v-21.077
				c-7.941,3.888-16.965,4.971-25.6,3.072c-1.481-0.279-2.936-0.678-4.352-1.195h-0.085c-3.798-1.355-7.324-3.378-10.411-5.973
				c-14.336-12.373-14.336-37.12,0-61.867c8.107-15.019,26.539-29.952,44.715-41.728c4.352-2.816,8.619-5.376,12.8-7.765
				c21.589,12.373,47.445,30.891,57.515,49.493C224.451,218.307,224.451,243.053,210.115,255.427z"/>
		</g>
		<g>
			<path style="fill:#3F51B5;" d="M79.896,96.28c-0.265,0.382-0.581,0.727-0.939,1.024c-4.469,3.617-10.37,4.942-15.957,3.584
				c-5.46-1.266-10.118-4.806-12.8-9.728c-1.086,1.913-2.468,3.641-4.096,5.12c-6.229-6.4-5.888-18.176,0.939-29.867
				c4.142-6.52,9.572-12.124,15.957-16.469c6.386,4.345,11.816,9.95,15.957,16.469C85.784,78.104,86.125,89.88,79.896,96.28z"/>
			<path style="fill:#3F51B5;" d="M232.557,375.32c-4.142,6.52-9.572,12.124-15.957,16.469c-6.386-4.345-11.816-9.95-15.957-16.469
				c-6.827-11.691-7.168-23.467-0.939-29.867c1.628,1.479,3.01,3.207,4.096,5.12c2.682-4.922,7.34-8.462,12.8-9.728
				c5.587-1.358,11.488-0.033,15.957,3.584c0.358,0.297,0.674,0.642,0.939,1.024C239.725,351.853,239.384,363.629,232.557,375.32z"
				/>
			<path style="fill:#3F51B5;" d="M184.515,255.427c-3.087,2.595-6.612,4.618-10.411,5.973h-0.085
				c-1.416,0.517-2.871,0.916-4.352,1.195c-8.635,1.899-17.659,0.816-25.6-3.072V280.6c-0.096,4.555,1.671,8.952,4.892,12.174
				c3.222,3.222,7.619,4.989,12.174,4.893h-42.667c4.555,0.096,8.952-1.671,12.174-4.893c3.222-3.222,4.989-7.619,4.893-12.174
				v-21.077c-7.941,3.888-16.965,4.971-25.6,3.072v-3.072c-1.451,0.683-2.901,1.28-4.352,1.877h-0.085
				c-3.798-1.355-7.324-3.378-10.411-5.973c-14.336-12.373-14.336-37.12,0-61.867c8.107-15.019,26.539-29.952,44.715-41.728
				c18.176,11.776,36.608,26.709,44.715,41.728C198.851,218.307,198.851,243.053,184.515,255.427z"/>
		</g>
	</g>
	<g>
		<path d="M85.333,392.533h-25.6c-4.713,0-8.533-3.82-8.533-8.533v-25.6c0-4.713-3.821-8.533-8.533-8.533s-8.533,3.82-8.533,8.533
			V384c0,14.138,11.462,25.6,25.6,25.6h25.6c4.713,0,8.533-3.821,8.533-8.533S90.046,392.533,85.333,392.533z"/>
		<path d="M136.533,392.533h-17.067c-4.713,0-8.533,3.82-8.533,8.533s3.821,8.533,8.533,8.533h17.067
			c4.713,0,8.533-3.821,8.533-8.533S141.246,392.533,136.533,392.533z"/>
		<path d="M221.867,51.2h25.6c4.713,0,8.533,3.821,8.533,8.533v25.6c0,4.713,3.821,8.533,8.533,8.533s8.533-3.821,8.533-8.533v-25.6
			c0-14.138-11.462-25.6-25.6-25.6h-25.6c-4.713,0-8.533,3.821-8.533,8.533S217.154,51.2,221.867,51.2z"/>
		<path d="M170.667,51.2h17.067c4.713,0,8.533-3.821,8.533-8.533s-3.821-8.533-8.533-8.533h-17.067
			c-4.713,0-8.533,3.821-8.533,8.533S165.954,51.2,170.667,51.2z"/>
		<path d="M59.648,110.933c1.561-0.001,3.119-0.129,4.659-0.384c1.348-0.297,2.672-0.696,3.959-1.195v10.112
			c-4.713,0-8.533,3.821-8.533,8.533c0,4.713,3.821,8.533,8.533,8.533h17.067c4.713,0,8.533-3.821,8.533-8.533
			c0-4.713-3.821-8.533-8.533-8.533v-10.112c1.285,0.495,2.606,0.892,3.951,1.186c7.765,1.393,15.75-0.705,21.828-5.734
			c10.377-8.934,11.093-25.685,1.937-41.463c-8.222-11.818-19.199-21.454-31.983-28.075c-2.64-1.524-5.893-1.524-8.533,0
			c-12.714,6.583-23.645,16.149-31.855,27.878c-9.293,16-8.533,32.751,1.809,41.685C47.301,108.84,53.385,111.003,59.648,110.933z
			 M55.561,71.475C61.114,63.653,68.378,57.2,76.8,52.608c8.477,4.641,15.775,11.166,21.333,19.072
			c4.873,8.405,5.641,16.887,1.809,20.181c-2.237,1.701-5.091,2.371-7.851,1.843c-3.412-0.616-6.346-2.778-7.945-5.854
			c-1.649-2.463-4.418-3.941-7.381-3.941c-2.964,0-5.732,1.478-7.381,3.941c-1.599,3.076-4.533,5.238-7.945,5.854
			c-2.76,0.53-5.615-0.14-7.851-1.843C49.792,88.576,50.56,80.094,55.561,71.475z"/>
		<path d="M230.4,409.6c1.497,0.005,2.97-0.387,4.267-1.135c12.714-6.583,23.645-16.149,31.855-27.878
			c9.293-16,8.533-32.751-1.809-41.685c-7.057-6.238-17.02-7.986-25.779-4.523v-10.112c4.713,0,8.533-3.821,8.533-8.533
			c0-4.713-3.821-8.533-8.533-8.533h-17.067c-4.713,0-8.533,3.821-8.533,8.533c0,4.713,3.821,8.533,8.533,8.533v10.112
			c-8.766-3.44-18.72-1.684-25.779,4.548c-10.377,8.934-11.093,25.685-1.937,41.463c8.227,11.82,19.21,21.456,32,28.075
			C227.443,409.211,228.908,409.602,230.4,409.6z M209.067,372.053c-4.873-8.405-5.641-16.887-1.809-20.181
			c1.71-1.344,3.833-2.053,6.007-2.005c0.606,0,1.211,0.051,1.809,0.154c3.412,0.616,6.346,2.778,7.945,5.854
			c1.649,2.463,4.418,3.941,7.381,3.941c2.964,0,5.732-1.478,7.381-3.941c1.599-3.076,4.533-5.238,7.945-5.854
			c2.76-0.532,5.616,0.138,7.851,1.843c3.831,3.294,3.063,11.776-1.937,20.395c-5.553,7.822-12.817,14.275-21.239,18.867
			C221.923,386.484,214.625,379.959,209.067,372.053z"/>
		<path d="M196.267,298.667c0-4.713-3.821-8.533-8.533-8.533c-2.326,0.228-4.631-0.597-6.284-2.25
			c-1.652-1.652-2.478-3.958-2.25-6.284v-9.387c13.272,2.6,27.014-0.84,37.495-9.387c17.485-15.095,18.21-44.271,1.929-72.388
			c-12.297-22.707-43.358-42.846-60.783-52.838c-2.627-1.505-5.855-1.505-8.482,0c-17.425,10.027-48.486,30.191-60.612,52.693
			c-16.41,28.331-15.684,57.506,1.809,72.61c10.482,8.505,24.2,11.916,37.444,9.31v9.25c0.26,2.345-0.55,4.682-2.205,6.364
			c-1.655,1.681-3.979,2.529-6.328,2.306c-4.713,0-8.533,3.82-8.533,8.533s3.821,8.533,8.533,8.533h68.267
			C192.446,307.2,196.267,303.38,196.267,298.667z M166.17,253.269c-2.51,1.556-4.037,4.3-4.036,7.253V281.6
			c0.02,2.902,0.501,5.782,1.425,8.533h-19.917c0.924-2.751,1.406-5.631,1.425-8.533v-21.077c0.013-2.96-1.509-5.716-4.022-7.281
			c-2.513-1.565-5.658-1.716-8.309-0.399c-10.058,5.083-22.139,3.952-31.078-2.91c-11.093-9.574-10.359-30.114,1.929-51.345
			c7.117-13.133,25.216-28.911,50.014-43.674c24.798,14.763,42.906,30.549,50.133,43.887c12.169,21.018,12.894,41.557,1.818,51.123
			c-8.941,6.864-21.024,7.999-31.087,2.918C171.812,251.539,168.674,251.7,166.17,253.269z"/>
		<path d="M477.867,68.267H307.2V34.133C307.2,15.282,291.918,0,273.067,0H34.133C15.282,0,0,15.282,0,34.133V409.6
			c0,18.851,15.282,34.133,34.133,34.133H204.8v34.133c0,18.851,15.282,34.133,34.133,34.133h238.933
			C496.718,512,512,496.718,512,477.867V102.4C512,83.549,496.718,68.267,477.867,68.267z M307.2,270.08
			c6.329-4.661,14.297-6.512,22.033-5.12c9.306,1.626,17.343,7.45,21.786,15.787c1.644,2.47,4.414,3.954,7.381,3.954
			s5.738-1.484,7.381-3.954c4.437-8.346,12.475-14.18,21.786-15.812c8.047-1.488,16.346,0.561,22.775,5.623
			c11.093,9.574,10.359,30.114-1.929,51.345c-7.108,13.133-25.216,28.911-50.014,43.674c-24.798-14.763-42.906-30.549-50.074-43.785
			c-0.393-0.691-0.751-1.357-1.126-2.039V270.08z M17.067,409.6V34.133c0-9.426,7.641-17.067,17.067-17.067h238.933
			c9.426,0,17.067,7.641,17.067,17.067V409.6c0,9.426-7.641,17.067-17.067,17.067H34.133
			C24.708,426.667,17.067,419.026,17.067,409.6z M494.933,477.867c0,9.426-7.641,17.067-17.067,17.067H238.933
			c-9.426,0-17.067-7.641-17.067-17.067v-34.133h17.067v8.533c0,14.138,11.462,25.6,25.6,25.6h25.6c4.713,0,8.533-3.821,8.533-8.533
			c0-4.713-3.821-8.533-8.533-8.533h-25.6c-4.713,0-8.533-3.82-8.533-8.533v-8.533h17.067c18.851,0,34.133-15.282,34.133-34.133
			v-61.585c14.063,13.61,29.841,25.328,46.933,34.859c2.643,1.516,5.891,1.516,8.533,0c17.417-9.993,48.478-30.14,60.646-52.625
			c16.41-28.331,15.684-57.506-1.826-72.619c-10.264-8.411-23.705-11.89-36.762-9.515c-10.087,1.706-19.336,6.677-26.325,14.148
			c-13.093-13.963-33.353-18.575-51.2-11.657V85.333h170.667c9.426,0,17.067,7.641,17.067,17.067V477.867z"/>
		<path d="M341.333,460.8h-17.067c-4.713,0-8.533,3.821-8.533,8.533c0,4.713,3.821,8.533,8.533,8.533h17.067
			c4.713,0,8.533-3.821,8.533-8.533C349.867,464.621,346.046,460.8,341.333,460.8z"/>
		<path d="M452.267,102.4h-25.6c-4.713,0-8.533,3.821-8.533,8.533c0,4.713,3.82,8.533,8.533,8.533h25.6
			c4.713,0,8.533,3.821,8.533,8.533v25.6c0,4.713,3.821,8.533,8.533,8.533c4.713,0,8.533-3.821,8.533-8.533V128
			C477.867,113.862,466.405,102.4,452.267,102.4z"/>
		<path d="M392.533,102.4h-17.067c-4.713,0-8.533,3.821-8.533,8.533c0,4.713,3.821,8.533,8.533,8.533h17.067
			c4.713,0,8.533-3.821,8.533-8.533C401.067,106.221,397.246,102.4,392.533,102.4z"/>
		<path d="M439.467,402.202c-2.64-1.524-5.893-1.524-8.533,0c-12.714,6.583-23.645,16.149-31.855,27.878
			c-9.293,16-8.533,32.751,1.809,41.685c4.814,4.008,10.897,6.171,17.161,6.101c1.561-0.001,3.119-0.129,4.659-0.384
			c4.564-0.761,8.861-2.663,12.493-5.53c3.628,2.866,7.923,4.765,12.484,5.521c7.765,1.394,15.751-0.703,21.828-5.734
			c10.377-8.934,11.093-25.685,1.937-41.463C463.228,418.459,452.25,408.823,439.467,402.202z M458.394,458.803
			c-2.234,1.706-5.091,2.376-7.851,1.843c-3.412-0.616-6.346-2.778-7.945-5.854c-1.649-2.463-4.418-3.941-7.381-3.941
			c-2.964,0-5.732,1.478-7.381,3.941c-1.599,3.076-4.533,5.238-7.945,5.854c-2.76,0.537-5.618-0.134-7.851-1.843
			c-3.831-3.294-3.063-11.776,1.937-20.395c5.548-7.82,12.806-14.273,21.222-18.867c8.477,4.641,15.775,11.166,21.333,19.072
			c4.907,8.414,5.675,16.896,1.843,20.19H458.394z"/>
	</g>
</g>
<g>
</g>
<g>
</g>
<g>
</g>
<g>
</g>
<g>
</g>
<g>
</g>
<g>
</g>
<g>
</g>
<g>
</g>
<g>
</g>
<g>
</g>
<g>
</g>
<g>
</g>
<g>
</g>
<g>
</g>
</svg>
