<?xml version="1.0" encoding="iso-8859-1"?>
<!-- Generator: Adobe Illustrator 19.0.0, SVG Export Plug-In . SVG Version: 6.00 Build 0)  -->
<svg width="512pt" height="512pt" version="1.1" id="Capa_1" xmlns="http://www.w3.org/2000/svg" xmlns:xlink="http://www.w3.org/1999/xlink" x="0px" y="0px"
	 viewBox="0 0 512 512" style="enable-background:new 0 0 512 512;" xml:space="preserve">
<path style="fill:#C1386D;" d="M10,10v492h492V10H10z"/>
<g>
	<rect x="187.33" y="50" style="fill:#E3FBFF;" width="137.33" height="137.33"/>
	<rect x="50" y="50" style="fill:#E3FBFF;" width="137.33" height="137.33"/>
	<rect x="324.67" y="50" style="fill:#E3FBFF;" width="137.33" height="137.33"/>
	<rect x="50" y="187.33" style="fill:#E3FBFF;" width="137.33" height="137.33"/>
	<rect x="50" y="324.67" style="fill:#E3FBFF;" width="137.33" height="137.33"/>
	<rect x="324.67" y="187.33" style="fill:#E3FBFF;" width="137.33" height="137.33"/>
	<rect x="187.33" y="324.67" style="fill:#E3FBFF;" width="137.33" height="137.33"/>
	<rect x="187.33" y="187.33" style="fill:#E3FBFF;" width="137.33" height="137.33"/>
	<rect x="324.67" y="324.67" style="fill:#E3FBFF;" width="137.33" height="137.33"/>
</g>
<g>
	<path style="fill:#231E1E;" d="M502,0H10C4.477,0,0,4.478,0,10v492c0,5.522,4.477,10,10,10h492c5.522,0,10-4.478,10-10V10
		C512,4.478,507.522,0,502,0z M492,492H20V20h472V492z"/>
	<path style="fill:#231E1E;" d="M50,472h412c5.522,0,10-4.478,10-10V50c0-5.522-4.478-10-10-10H50c-5.523,0-10,4.478-10,10v412
		C40,467.522,44.477,472,50,472z M452,314.666H334.667V197.333H452V314.666z M314.667,314.666H197.333V197.333h117.334V314.666z
		 M177.333,314.666H60V197.333h117.333L177.333,314.666L177.333,314.666z M60,334.666h117.333V452H60V334.666z M197.333,334.666
		h117.334V452H197.333V334.666z M452,452H334.667V334.666H452V452z M452,177.333H334.667V60H452V177.333z M314.667,177.333H197.333
		V60h117.334V177.333z M60,60h117.333v117.333H60V60z"/>
	<path style="fill:#231E1E;" d="M126.365,87.385c-2.021-1.373-5.161-1.699-6.916-0.584c0,0-11.83,7.17-11.88,7.2
		c-3,1.818-3.35,5.932-1.351,8.639c1.296,1.756,3.572,2.211,5.4,0.991l2.61-1.62c0,0,0,45.582,0,45.809
		c0,3.386,4.402,4.321,7.02,4.321c2.65,0,7.02-0.95,7.02-4.32c0,0,0-57,0-57.239C128.269,89.237,127.49,88.149,126.365,87.385z"/>
	<path style="fill:#231E1E;" d="M239.664,283.73c3.96,3.301,9.39,4.95,16.29,4.95c6.539,0,11.819-1.679,15.841-5.04
		c5.149-4.304,6.029-11.066,6.029-17.37c0-5.363-1.603-10.858-5.636-14.586c-4.317-3.99-10.745-5.035-16.414-5.035h-5.85l0.9-12.06
		c0,0,19.593,0,19.709,0c3.025,0,4.05-3.699,4.05-6.12c0-2.391-1.001-6.12-4.05-6.12h-28.71c-1.381,0-2.221,1.44-2.52,4.32
		l-2.43,22.68c-0.2,2.192-0.54,4.897,1.035,6.705c0.81,0.931,2.205,1.395,4.185,1.395c0,0,13.65,0,13.68,0
		c5.255,0,8.01,3.882,8.01,8.82c0,5.699-1.733,10.17-8.19,10.17c-3.343,0-7.83-1.39-7.83-5.49c0-4.295-3.396-5.22-7.02-5.22
		c-4.197,0-7.02,1.839-7.02,6.21C233.724,276.501,235.704,280.432,239.664,283.73z"/>
	<path style="fill:#231E1E;" d="M375.042,382.715c1.494,0.879,3.512,1.225,4.926,1.225c2.359,0,7.112-1.127,7.112-4.319v-6.03
		h16.109v6.3c0,0-22.12,38.304-22.141,38.34c-1.485,2.571-0.124,5.692,2.115,7.38c2.363,1.78,8.285,3.693,10.125,0.181l21.061-40.32
		c1.92-3.6,2.88-6.449,2.88-8.55c0,0,0-11.199,0-11.25c0-2.681-3.918-4.32-6.12-4.32c0,0-31.877,0-31.949,0
		c-2.306,0-6.121,1.543-6.121,4.32c0,0,0,13.787,0,13.949C373.039,381.03,373.883,382.033,375.042,382.715z"/>
</g>
<g>
</g>
<g>
</g>
<g>
</g>
<g>
</g>
<g>
</g>
<g>
</g>
<g>
</g>
<g>
</g>
<g>
</g>
<g>
</g>
<g>
</g>
<g>
</g>
<g>
</g>
<g>
</g>
<g>
</g>
</svg>
