<?xml version="1.0" encoding="iso-8859-1"?>
<!-- Generator: Adobe Illustrator 19.0.0, SVG Export Plug-In . SVG Version: 6.00 Build 0)  -->
<svg version="1.1" id="Layer_1" xmlns="http://www.w3.org/2000/svg" xmlns:xlink="http://www.w3.org/1999/xlink" x="0px" y="0px"
	 viewBox="0 0 512 512" style="enable-background:new 0 0 512 512;" xml:space="preserve">
<rect x="16.568" y="367.165" style="fill:#F9D84E;" width="512pt" height="512pt"/>
<g>
	<rect x="16.568" y="418.472" style="fill:#FFC20D;" width="68.409" height="17.102"/>
	<rect x="16.568" y="367.165" style="fill:#FFC20D;" width="17.102" height="68.409"/>
</g>
<rect x="84.977" y="367.165" style="fill:#F9D84E;" width="68.409" height="68.409"/>
<g>
	<rect x="84.977" y="418.472" style="fill:#FFC20D;" width="68.409" height="17.102"/>
	<rect x="84.977" y="367.165" style="fill:#FFC20D;" width="17.102" height="68.409"/>
</g>
<rect x="84.977" y="298.756" style="fill:#F9D84E;" width="68.409" height="68.409"/>
<g>
	<rect x="84.977" y="350.063" style="fill:#FFC20D;" width="68.409" height="17.102"/>
	<rect x="84.977" y="298.756" style="fill:#FFC20D;" width="17.102" height="68.409"/>
</g>
<rect x="16.568" y="298.756" style="fill:#F9D84E;" width="68.409" height="68.409"/>
<g>
	<rect x="16.568" y="350.063" style="fill:#FFC20D;" width="68.409" height="17.102"/>
	<rect x="16.568" y="298.756" style="fill:#FFC20D;" width="17.102" height="68.409"/>
</g>
<rect x="16.568" y="435.574" style="fill:#B169BF;" width="68.409" height="68.409"/>
<g>
	<rect x="16.568" y="435.574" style="fill:#844A8F;" width="17.102" height="68.409"/>
	<rect x="16.568" y="486.881" style="fill:#844A8F;" width="68.409" height="17.102"/>
	<rect x="16.568" y="486.881" style="fill:#844A8F;" width="17.102" height="17.102"/>
</g>
<rect x="84.977" y="435.574" style="fill:#B169BF;" width="68.409" height="68.409"/>
<g>
	<rect x="84.977" y="435.574" style="fill:#844A8F;" width="17.102" height="68.409"/>
	<rect x="84.977" y="486.881" style="fill:#844A8F;" width="68.409" height="17.102"/>
	<rect x="84.977" y="486.881" style="fill:#844A8F;" width="17.102" height="17.102"/>
</g>
<rect x="153.386" y="435.574" style="fill:#B169BF;" width="68.409" height="68.409"/>
<g>
	<rect x="153.386" y="435.574" style="fill:#844A8F;" width="17.102" height="68.409"/>
	<rect x="153.386" y="486.881" style="fill:#844A8F;" width="68.409" height="17.102"/>
	<rect x="153.386" y="486.881" style="fill:#844A8F;" width="17.102" height="17.102"/>
</g>
<rect x="221.795" y="435.574" style="fill:#B169BF;" width="68.409" height="68.409"/>
<g>
	<rect x="221.795" y="435.574" style="fill:#844A8F;" width="17.102" height="68.409"/>
	<rect x="221.795" y="486.881" style="fill:#844A8F;" width="68.409" height="17.102"/>
	<rect x="221.795" y="486.881" style="fill:#844A8F;" width="17.102" height="17.102"/>
</g>
<rect x="221.795" y="367.165" style="fill:#FD5E95;" width="68.409" height="68.409"/>
<g>
	<rect x="221.795" y="418.472" style="fill:#D14D7B;" width="68.409" height="17.102"/>
	<rect x="221.795" y="367.165" style="fill:#D14D7B;" width="17.102" height="68.409"/>
</g>
<rect x="290.205" y="367.165" style="fill:#FD5E95;" width="68.409" height="68.409"/>
<g>
	<rect x="290.205" y="418.472" style="fill:#D14D7B;" width="68.409" height="17.102"/>
	<rect x="290.205" y="367.165" style="fill:#D14D7B;" width="17.102" height="68.409"/>
</g>
<rect x="290.205" y="435.574" style="fill:#FD5E95;" width="68.409" height="68.409"/>
<g>
	<rect x="290.205" y="486.881" style="fill:#D14D7B;" width="68.409" height="17.102"/>
	<rect x="290.205" y="435.574" style="fill:#D14D7B;" width="17.102" height="68.409"/>
</g>
<rect x="358.614" y="435.574" style="fill:#FD5E95;" width="68.409" height="68.409"/>
<g>
	<rect x="358.614" y="486.881" style="fill:#D14D7B;" width="68.409" height="17.102"/>
	<rect x="358.614" y="435.574" style="fill:#D14D7B;" width="17.102" height="68.409"/>
</g>
<rect x="256" y="8.017" style="fill:#FD5E95;" width="68.409" height="68.409"/>
<g>
	<rect x="256" y="59.324" style="fill:#D14D7B;" width="68.409" height="17.102"/>
	<rect x="256" y="8.017" style="fill:#D14D7B;" width="17.102" height="68.409"/>
</g>
<rect x="324.409" y="8.017" style="fill:#FD5E95;" width="68.409" height="68.409"/>
<g>
	<rect x="324.409" y="59.324" style="fill:#D14D7B;" width="68.409" height="17.102"/>
	<rect x="324.409" y="8.017" style="fill:#D14D7B;" width="17.102" height="68.409"/>
</g>
<rect x="324.409" y="76.426" style="fill:#FD5E95;" width="68.409" height="68.409"/>
<g>
	<rect x="324.409" y="127.733" style="fill:#D14D7B;" width="68.409" height="17.102"/>
	<rect x="324.409" y="76.426" style="fill:#D14D7B;" width="17.102" height="68.409"/>
</g>
<rect x="392.818" y="76.426" style="fill:#FD5E95;" width="68.409" height="68.409"/>
<g>
	<rect x="392.818" y="127.733" style="fill:#D14D7B;" width="68.409" height="17.102"/>
	<rect x="392.818" y="76.426" style="fill:#D14D7B;" width="17.102" height="68.409"/>
</g>
<rect x="358.614" y="367.165" style="fill:#7DBB34;" width="68.409" height="68.409"/>
<g>
	<rect x="358.614" y="418.472" style="fill:#60A333;" width="68.409" height="17.102"/>
	<rect x="358.614" y="367.165" style="fill:#60A333;" width="17.102" height="68.409"/>
</g>
<rect x="427.023" y="367.165" style="fill:#7DBB34;" width="68.409" height="68.409"/>
<g>
	<rect x="427.023" y="418.472" style="fill:#60A333;" width="68.409" height="17.102"/>
	<rect x="427.023" y="367.165" style="fill:#60A333;" width="17.102" height="68.409"/>
</g>
<rect x="427.023" y="435.574" style="fill:#7DBB34;" width="68.409" height="68.409"/>
<g>
	<rect x="427.023" y="486.881" style="fill:#60A333;" width="68.409" height="17.102"/>
	<rect x="427.023" y="435.574" style="fill:#60A333;" width="17.102" height="68.409"/>
</g>
<rect x="358.614" y="298.756" style="fill:#7DBB34;" width="68.409" height="68.409"/>
<g>
	<rect x="358.614" y="350.063" style="fill:#60A333;" width="68.409" height="17.102"/>
	<rect x="358.614" y="298.756" style="fill:#60A333;" width="17.102" height="68.409"/>
</g>
<rect x="153.386" y="127.733" style="fill:#45CAE0;" width="68.409" height="68.409"/>
<g>
	<rect x="153.386" y="179.04" style="fill:#0AADBF;" width="68.409" height="17.102"/>
	<rect x="153.386" y="127.733" style="fill:#0AADBF;" width="17.102" height="68.409"/>
</g>
<rect x="153.386" y="196.142" style="fill:#45CAE0;" width="68.409" height="68.409"/>
<g>
	<rect x="153.386" y="247.449" style="fill:#0AADBF;" width="68.409" height="17.102"/>
	<rect x="153.386" y="196.142" style="fill:#0AADBF;" width="17.102" height="68.409"/>
</g>
<rect x="221.795" y="196.142" style="fill:#45CAE0;" width="68.409" height="68.409"/>
<g>
	<rect x="221.795" y="247.449" style="fill:#0AADBF;" width="68.409" height="17.102"/>
	<rect x="221.795" y="196.142" style="fill:#0AADBF;" width="17.102" height="68.409"/>
</g>
<rect x="153.386" y="264.551" style="fill:#45CAE0;" width="68.409" height="68.409"/>
<g>
	<rect x="153.386" y="315.858" style="fill:#0AADBF;" width="68.409" height="17.102"/>
	<rect x="153.386" y="264.551" style="fill:#0AADBF;" width="17.102" height="68.409"/>
</g>
<path d="M256,84.443h60.392v60.392c0,4.428,3.588,8.017,8.017,8.017h136.818c4.428,0,8.017-3.588,8.017-8.017V76.426
	c0-4.428-3.588-8.017-8.017-8.017h-60.392V8.017c0-4.428-3.588-8.017-8.017-8.017H256c-4.427,0-8.017,3.588-8.017,8.017v68.409
	C247.983,80.854,251.573,84.443,256,84.443z M332.426,84.443h52.376v52.376h-52.376V84.443z M453.211,136.818h-52.376V84.443h52.376
	V136.818z M384.802,68.409h-52.376V16.033h52.376V68.409z M264.017,16.033h52.376v52.376h-52.376V16.033z"/>
<path d="M495.432,359.148H435.04v-60.392c0-4.428-3.588-8.017-8.017-8.017h-68.409c-4.428,0-8.017,3.588-8.017,8.017v60.392h-9.086
	c-4.428,0-8.017,3.588-8.017,8.017c0,4.428,3.588,8.017,8.017,8.017h9.086v52.376h-52.376v-52.376h9.086
	c4.428,0,8.017-3.588,8.017-8.017c0-4.428-3.588-8.017-8.017-8.017h-85.511c-4.427,0-8.017,3.588-8.017,8.017v60.392h-52.376v-86.58
	h60.392c4.427,0,8.017-3.588,8.017-8.017v-60.392h60.392c4.428,0,8.017-3.588,8.017-8.017v-68.409c0-4.428-3.588-8.017-8.017-8.017
	h-60.392v-60.392c0-4.428-3.589-8.017-8.017-8.017h-68.409c-4.427,0-8.017,3.588-8.017,8.017v17.102
	c0,4.428,3.589,8.017,8.017,8.017c4.427,0,8.017-3.588,8.017-8.017v-9.086h52.376v52.376h-52.376v-9.086
	c0-4.428-3.589-8.017-8.017-8.017c-4.427,0-8.017,3.588-8.017,8.017v111.699H67.875c-4.427,0-8.017,3.588-8.017,8.017
	s3.589,8.017,8.017,8.017h9.086v52.376H24.585v-52.376h9.086c4.427,0,8.017-3.588,8.017-8.017s-3.589-8.017-8.017-8.017H16.568
	c-4.427,0-8.017,3.588-8.017,8.017v205.228c0,4.428,3.589,8.017,8.017,8.017h478.864c4.428,0,8.017-3.588,8.017-8.017V367.165
	C503.449,362.737,499.861,359.148,495.432,359.148z M487.415,427.557H435.04v-52.376h52.376V427.557z M366.63,375.182h52.376v52.376
	H366.63V375.182z M366.63,306.772h52.376v52.376H366.63V306.772z M229.812,375.182h52.376v52.376h-52.376V375.182z M92.994,375.182
	h52.376v52.376H92.994V375.182z M213.779,324.944h-52.376v-52.376h52.376V324.944z M282.188,256.534h-52.376v-52.376h52.376V256.534
	z M213.779,204.159v52.376h-52.376v-52.376H213.779z M145.37,359.148H92.994v-52.376h52.376V359.148z M76.96,375.182v52.376H24.585
	v-52.376H76.96z M24.585,443.591H76.96v52.376H24.585V443.591z M92.994,443.591h52.376v52.376H92.994V443.591z M161.403,443.591
	h52.376v52.376h-52.376V443.591z M229.812,443.591h52.376v52.376h-52.376V443.591z M298.221,443.591h52.376v52.376h-52.376V443.591z
	 M366.63,443.591h52.376v52.376H366.63V443.591z M487.415,495.967H435.04v-52.376h52.376V495.967z"/>
<g>
</g>
<g>
</g>
<g>
</g>
<g>
</g>
<g>
</g>
<g>
</g>
<g>
</g>
<g>
</g>
<g>
</g>
<g>
</g>
<g>
</g>
<g>
</g>
<g>
</g>
<g>
</g>
<g>
</g>
</svg>
