<?xml version="1.0" encoding="iso-8859-1"?>
<!-- Generator: Adobe Illustrator 19.0.0, SVG Export Plug-In . SVG Version: 6.00 Build 0)  -->
<svg width="512pt" height="512pt" version="1.1" id="Layer_1" xmlns="http://www.w3.org/2000/svg" xmlns:xlink="http://www.w3.org/1999/xlink" x="0px" y="0px"
	 viewBox="0 0 492.8 492.8" style="enable-background:new 0 0 492.8 492.8;" xml:space="preserve">
<path style="fill:#C9C6B1;" d="M480,230.4H262.4V12.8c0-7.2-8.8-12.8-16-12.8c-7.2,0-16,5.6-16,12.8v217.6H12.8
	c-7.2,0-12.8,8.8-12.8,16c0,7.2,5.6,16,12.8,16h217.6V480c0,7.2,8.8,12.8,16,12.8c7.2,0,16-5.6,16-12.8V262.4H480
	c7.2,0,12.8-8.8,12.8-16S486.4,230.4,480,230.4z"/>
<polygon style="fill:#C43D27;" points="449.6,154.4 409.6,113.6 449.6,73.6 416.8,40.8 376.8,80.8 336,40.8 303.2,73.6 344,113.6 
	303.2,154.4 336,187.2 376.8,146.4 416.8,187.2 "/>
<g>
	<polyline style="fill:#991608;" points="336,187.2 376.8,146.4 416.8,187.2 449.6,154.4 409.6,113.6 449.6,73.6 416.8,40.8 
		376.8,80.8 	"/>
</g>
<path style="fill:#07BED6;" d="M194.4,376.8c0,41.6-33.6,75.2-75.2,75.2S44,418.4,44,376.8s33.6-75.2,75.2-75.2
	C160,300.8,194.4,334.4,194.4,376.8z"/>
<path style="fill:#00A1AD;" d="M172,323.2c29.6,29.6,29.6,77.6,0,107.2s-77.6,29.6-107.2,0"/>
<path style="fill:#B2AF9A;" d="M480,230.4H262.4l-32,32V480c0,7.2,8.8,12.8,16,12.8c7.2,0,16-5.6,16-12.8V262.4H480
	c7.2,0,12.8-8.8,12.8-16S486.4,230.4,480,230.4z"/>
<g>
</g>
<g>
</g>
<g>
</g>
<g>
</g>
<g>
</g>
<g>
</g>
<g>
</g>
<g>
</g>
<g>
</g>
<g>
</g>
<g>
</g>
<g>
</g>
<g>
</g>
<g>
</g>
<g>
</g>
</svg>
